<svg width="554" height="166" viewBox="0 0 554 166" fill="none" xmlns="http://www.w3.org/2000/svg">
<g filter="url(#filter0_dd_51_785)">
<path d="M86.6048 142.68C86.6048 144 82.9448 145.08 75.6248 145.92C68.3048 146.64 60.9848 147 53.6648 147C46.3448 147 41.6048 146.7 39.4448 146.1C37.4048 145.38 36.3848 144.24 36.3848 142.68V64.92H18.0248C15.9848 64.92 14.9648 60.54 14.9648 51.78C14.9648 43.02 15.9848 35.1 18.0248 28.02C18.6248 25.74 24.9848 23.64 37.1048 21.72C49.2248 19.8 58.5248 18.84 65.0048 18.84C71.4848 18.84 75.8048 19.08 77.9648 19.56C80.1248 20.04 81.7448 20.64 82.8248 21.36C83.9048 21.96 84.7448 22.68 85.3448 23.52C86.1848 24.84 86.6048 26.1 86.6048 27.3V142.68ZM196.787 146.1C190.067 147.78 181.727 148.62 171.767 148.62C161.807 148.62 153.407 147.78 146.567 146.1C139.847 144.3 133.727 141.06 128.207 136.38C117.287 127.14 111.827 109.08 111.827 82.2C111.827 56.28 117.527 38.7 128.927 29.46C134.567 24.9 140.747 21.72 147.467 19.92C154.187 18.12 162.227 17.22 171.587 17.22C181.067 17.22 189.167 18.12 195.887 19.92C202.727 21.72 208.967 24.9 214.607 29.46C226.007 38.7 231.707 56.28 231.707 82.2C231.707 109.08 226.247 127.14 215.327 136.38C209.807 141.06 203.627 144.3 196.787 146.1ZM167.987 118.02C168.947 119.58 170.207 120.36 171.767 120.36C173.447 120.36 174.767 119.58 175.727 118.02C176.687 116.34 177.467 112.74 178.067 107.22C178.667 101.7 178.967 93.84 178.967 83.64C178.967 73.44 178.667 65.52 178.067 59.88C177.467 54.12 176.687 50.34 175.727 48.54C174.767 46.62 173.447 45.66 171.767 45.66C170.207 45.66 168.947 46.56 167.987 48.36C165.587 52.44 164.387 64.2 164.387 83.64C164.387 102.96 165.587 114.42 167.987 118.02ZM295.173 130.08C295.173 137.16 293.553 142.02 290.313 144.66C287.073 147.3 282.273 148.62 275.913 148.62C269.673 148.62 264.933 147.3 261.693 144.66C258.453 142.02 256.833 137.16 256.833 130.08C256.833 123 258.453 118.32 261.693 116.04C265.053 113.64 269.853 112.44 276.093 112.44C282.333 112.44 287.073 113.64 290.313 116.04C293.553 118.32 295.173 123 295.173 130.08ZM389.307 142.68C389.307 144 385.647 145.08 378.327 145.92C371.007 146.64 363.687 147 356.367 147C349.047 147 344.307 146.7 342.147 146.1C340.107 145.38 339.087 144.24 339.087 142.68V64.92H320.727C318.687 64.92 317.667 60.54 317.667 51.78C317.667 43.02 318.687 35.1 320.727 28.02C321.327 25.74 327.687 23.64 339.807 21.72C351.927 19.8 361.227 18.84 367.707 18.84C374.187 18.84 378.507 19.08 380.667 19.56C382.827 20.04 384.447 20.64 385.527 21.36C386.607 21.96 387.447 22.68 388.047 23.52C388.887 24.84 389.307 26.1 389.307 27.3V142.68ZM499.49 146.1C492.77 147.78 484.43 148.62 474.47 148.62C464.51 148.62 456.11 147.78 449.27 146.1C442.55 144.3 436.43 141.06 430.91 136.38C419.99 127.14 414.53 109.08 414.53 82.2C414.53 56.28 420.23 38.7 431.63 29.46C437.27 24.9 443.45 21.72 450.17 19.92C456.89 18.12 464.93 17.22 474.29 17.22C483.77 17.22 491.87 18.12 498.59 19.92C505.43 21.72 511.67 24.9 517.31 29.46C528.71 38.7 534.41 56.28 534.41 82.2C534.41 109.08 528.95 127.14 518.03 136.38C512.51 141.06 506.33 144.3 499.49 146.1ZM470.69 118.02C471.65 119.58 472.91 120.36 474.47 120.36C476.15 120.36 477.47 119.58 478.43 118.02C479.39 116.34 480.17 112.74 480.77 107.22C481.37 101.7 481.67 93.84 481.67 83.64C481.67 73.44 481.37 65.52 480.77 59.88C480.17 54.12 479.39 50.34 478.43 48.54C477.47 46.62 476.15 45.66 474.47 45.66C472.91 45.66 471.65 46.56 470.69 48.36C468.29 52.44 467.09 64.2 467.09 83.64C467.09 102.96 468.29 114.42 470.69 118.02Z" fill="#FCD634"/>
</g>
<defs>
<filter id="filter0_dd_51_785" x="0.164845" y="0.419971" width="553.045" height="165" filterUnits="userSpaceOnUse" color-interpolation-filters="sRGB">
<feFlood flood-opacity="0" result="BackgroundImageFix"/>
<feColorMatrix in="SourceAlpha" type="matrix" values="0 0 0 0 0 0 0 0 0 0 0 0 0 0 0 0 0 0 127 0" result="hardAlpha"/>
<feOffset dx="2"/>
<feGaussianBlur stdDeviation="8.4"/>
<feComposite in2="hardAlpha" operator="out"/>
<feColorMatrix type="matrix" values="0 0 0 0 0.992157 0 0 0 0 0.811765 0 0 0 0 0.0431373 0 0 0 1 0"/>
<feBlend mode="normal" in2="BackgroundImageFix" result="effect1_dropShadow_51_785"/>
<feColorMatrix in="SourceAlpha" type="matrix" values="0 0 0 0 0 0 0 0 0 0 0 0 0 0 0 0 0 0 127 0" result="hardAlpha"/>
<feOffset dx="5" dy="10"/>
<feGaussianBlur stdDeviation="2.25"/>
<feComposite in2="hardAlpha" operator="out"/>
<feColorMatrix type="matrix" values="0 0 0 0 0 0 0 0 0 0 0 0 0 0 0 0 0 0 0.25 0"/>
<feBlend mode="normal" in2="effect1_dropShadow_51_785" result="effect2_dropShadow_51_785"/>
<feBlend mode="normal" in="SourceGraphic" in2="effect2_dropShadow_51_785" result="shape"/>
</filter>
</defs>
</svg>
