<svg width="120" height="59" viewBox="0 0 120 59" fill="none" xmlns="http://www.w3.org/2000/svg">
<path d="M2.08955 48.6567V52.3383H5.97015V48.6567H8.0597V58.1095H5.97015V54.0299H2.08955V58.1095H0V48.6567H2.08955Z" fill="#FAFAFA"/>
<path d="M20.2984 48.6567V50.4478H15.7213V52.6368H19.7014V54.2289H15.7213V58.1095H13.6318V48.6567H20.2984Z" fill="#FAFAFA"/>
<path d="M35.7214 48.6567L37.9104 55.2239L40 48.6567H42.8856V58.1095H40.8955V51.3433L38.7065 58.209H37.1144L34.8259 51.5423V58.209H32.8358V48.7562H35.7214V48.6567Z" fill="#FAFAFA"/>
<path d="M53.3338 48.6567L56.9158 58.1095H54.7268L54.0303 56.0199H50.4482L49.7517 58.1095H47.6621L51.2442 48.6567H53.3338ZM53.5328 54.5274L52.3387 51.0448L51.1447 54.5274H53.5328Z" fill="#FAFAFA"/>
<path d="M66.6667 48.6566C67.0648 48.6566 67.4628 48.7561 67.8608 48.8556C68.1593 48.9551 68.4578 49.1541 68.7563 49.4527C68.9553 49.6517 69.1543 49.9502 69.3533 50.2487C69.4528 50.5472 69.5523 50.9452 69.5523 51.2437C69.5523 51.8407 69.4528 52.2387 69.1543 52.7362C68.9553 53.1342 68.5573 53.4327 67.9603 53.6318C68.2588 53.7313 68.4578 53.8308 68.5573 53.9303C68.7563 54.0298 68.8558 54.2288 68.9553 54.4278C69.0548 54.6268 69.1543 54.8258 69.1543 55.1243C69.1543 55.3233 69.2538 55.6218 69.2538 55.8208C69.2538 56.0198 69.2538 56.1193 69.2538 56.3183C69.2538 56.5173 69.2538 56.7163 69.2538 56.9153C69.2538 57.1143 69.3533 57.3133 69.3533 57.5124C69.3533 57.7114 69.4528 57.9104 69.5523 58.0099H67.5623C67.4628 57.7114 67.3633 57.3133 67.3633 56.9153C67.3633 56.5173 67.2638 56.1193 67.2638 55.7213C67.1643 55.2238 67.0647 54.8258 66.7662 54.6268C66.5672 54.4278 66.1692 54.3283 65.6717 54.3283H63.5822V58.0099H61.4926V48.5571L66.6667 48.6566ZM65.8707 52.9352C66.3682 52.9352 66.6667 52.8357 66.9653 52.6367C67.1643 52.4377 67.3633 52.0397 67.3633 51.6417C67.3633 51.1442 67.2638 50.8457 66.9653 50.6467C66.7662 50.4477 66.3682 50.3482 65.8707 50.3482H63.5822V53.0347H65.8707V52.9352Z" fill="#FAFAFA"/>
<path d="M77.015 48.6567V52.6368L80.6966 48.6567H83.2836L79.602 52.4378L83.6816 58.209H81.0946L78.209 53.9304L77.015 55.1244V58.209H74.9254V48.7562L77.015 48.6567Z" fill="#FAFAFA"/>
<path d="M95.3233 48.6567V50.4478H90.3482V52.4378H94.9253V54.0299H90.3482V56.3184H95.4228V58.1095H88.2587V48.6567H95.3233Z" fill="#FAFAFA"/>
<path d="M99.9009 50.4478V48.6567H107.662V50.4478H104.777V58.209H102.687V50.4478H99.9009Z" fill="#FAFAFA"/>
<path d="M114.129 55.8208C114.228 56.0198 114.427 56.2189 114.626 56.3184C114.826 56.4179 115.025 56.5174 115.323 56.6169C115.622 56.7164 115.821 56.7164 116.119 56.7164C116.318 56.7164 116.517 56.7164 116.716 56.7164C116.915 56.7164 117.114 56.6169 117.313 56.5174C117.512 56.4179 117.612 56.3184 117.811 56.1193C117.91 55.9203 118.01 55.7213 118.01 55.5223C118.01 55.2238 117.91 55.0248 117.811 54.9253C117.612 54.7263 117.413 54.6268 117.214 54.5273C116.915 54.4278 116.617 54.3283 116.318 54.2288C116.02 54.1293 115.622 54.0298 115.323 53.9303C114.925 53.8308 114.626 53.7313 114.328 53.6318C114.029 53.5323 113.731 53.3333 113.432 53.1343C113.134 52.9353 112.935 52.6368 112.835 52.3383C112.636 52.0397 112.636 51.6417 112.636 51.2437C112.636 50.7462 112.736 50.3482 112.935 49.9502C113.134 49.5522 113.432 49.2537 113.731 49.0547C114.029 48.8557 114.427 48.6567 114.826 48.5572C115.224 48.4577 115.721 48.3582 116.119 48.3582C116.617 48.3582 117.114 48.4577 117.512 48.5572C118.01 48.6567 118.408 48.8557 118.706 49.0547C119.005 49.2537 119.303 49.6517 119.502 50.0497C119.701 50.4477 119.801 50.9452 119.801 51.4427H117.811C117.811 51.1442 117.711 50.9452 117.612 50.7462C117.512 50.5472 117.413 50.4477 117.214 50.3482C117.015 50.2487 116.816 50.1492 116.617 50.1492C116.418 50.1492 116.119 50.0497 115.92 50.0497C115.721 50.0497 115.622 50.0497 115.423 50.1492C115.224 50.1492 115.124 50.2487 114.925 50.3482C114.825 50.4477 114.626 50.5472 114.626 50.6467C114.527 50.7462 114.527 50.9452 114.527 51.1442C114.527 51.3432 114.527 51.4427 114.626 51.6417C114.726 51.7412 114.825 51.8407 115.025 51.9402C115.224 52.0397 115.522 52.1393 115.92 52.2388C116.318 52.3383 116.816 52.4378 117.313 52.6368C117.512 52.6368 117.711 52.7363 118.01 52.8358C118.308 52.9353 118.607 53.0348 118.905 53.2338C119.204 53.4328 119.502 53.7313 119.701 54.0298C119.9 54.3283 120 54.8258 120 55.3233C120 55.7213 119.9 56.1193 119.701 56.5174C119.502 56.9154 119.303 57.2139 118.905 57.5124C118.607 57.8109 118.209 58.0099 117.711 58.1094C117.214 58.3084 116.617 58.3084 116.02 58.3084C115.522 58.3084 115.025 58.2089 114.527 58.1094C114.029 58.0099 113.631 57.8109 113.233 57.5124C112.835 57.2139 112.537 56.9154 112.338 56.4179C112.139 56.0198 112.039 55.5223 112.039 54.9253H114.029C114.029 55.3233 114.029 55.6218 114.129 55.8208Z" fill="#FAFAFA"/>
<path d="M99.5025 20.398L79.1045 0V11.4428L99.5025 31.8408L105.274 26.0697L111.94 19.403V39.7015H120V0L99.5025 20.398Z" fill="#CD0015"/>
<path d="M8.7563 0.199219V15.3236H24.4777V0.199219H33.0349V39.7017H24.4777V22.5873H8.7563V39.6022H0.298584V0.199219H8.7563Z" fill="#FAFAFA"/>
<path d="M66.7666 0.199219V7.4629H48.0601V16.6171H64.3786V23.3833H48.0601V39.7017H39.5029V0.199219H66.7666Z" fill="#FAFAFA"/>
<path d="M81.3934 8.0597L73.3337 0V39.7015H81.3934V19.5025L99.5029 37.6119V26.2687L81.3934 8.0597Z" fill="#FAFAFA"/>
</svg>
