<svg width="260" height="292" viewBox="0 0 260 292" fill="none" xmlns="http://www.w3.org/2000/svg">
<g opacity="0.5">
<g filter="url(#filter0_f_163_7061)">
<ellipse cx="126.625" cy="74.8846" rx="58.625" ry="54.1154" fill="url(#paint0_angular_163_7061)" fill-opacity="0.5"/>
</g>
</g>
<g opacity="0.5">
<rect y="76" width="260" height="216" rx="12" fill="url(#paint1_linear_163_7061)"/>
<rect x="0.5" y="76.5" width="259" height="215" rx="11.5" stroke="url(#paint2_linear_163_7061)" stroke-opacity="0.5"/>
</g>
<circle cx="127" cy="75.9999" r="32.5926" fill="black"/>
<path d="M111.875 54C114.281 54 116.516 55.375 117.805 57.4375C119.008 59.5859 119.008 62.25 117.805 64.3125C116.516 66.4609 114.281 67.75 111.875 67.75C109.383 67.75 107.148 66.4609 105.859 64.3125C104.656 62.25 104.656 59.5859 105.859 57.4375C107.148 55.375 109.383 54 111.875 54ZM143.5 54C145.906 54 148.141 55.375 149.43 57.4375C150.633 59.5859 150.633 62.25 149.43 64.3125C148.141 66.4609 145.906 67.75 143.5 67.75C141.008 67.75 138.773 66.4609 137.484 64.3125C136.281 62.25 136.281 59.5859 137.484 57.4375C138.773 55.375 141.008 54 143.5 54ZM99.5 79.6953C99.5 74.625 103.539 70.5 108.609 70.5H112.305C113.68 70.5 114.969 70.8438 116.172 71.3594C116 71.9609 116 72.6484 116 73.25C116 76.6016 117.375 79.5234 119.695 81.5C119.695 81.5 119.695 81.5 119.609 81.5H101.305C100.273 81.5 99.5 80.7266 99.5 79.6953ZM134.305 81.5H134.219C136.539 79.5234 137.914 76.6016 137.914 73.25C137.914 72.6484 137.914 71.9609 137.828 71.3594C138.945 70.8438 140.234 70.5 141.609 70.5H145.305C150.375 70.5 154.5 74.625 154.5 79.6953C154.5 80.7266 153.641 81.5 152.609 81.5H134.305ZM118.75 73.25C118.75 70.3281 120.297 67.6641 122.875 66.1172C125.367 64.6562 128.547 64.6562 131.125 66.1172C133.617 67.6641 135.25 70.3281 135.25 73.25C135.25 76.2578 133.617 78.9219 131.125 80.4688C128.547 81.9297 125.367 81.9297 122.875 80.4688C120.297 78.9219 118.75 76.2578 118.75 73.25ZM110.5 95.7656C110.5 89.4062 115.57 84.25 121.93 84.25H131.984C138.344 84.25 143.5 89.4062 143.5 95.7656C143.5 96.9688 142.469 98 141.18 98H112.734C111.531 98 110.5 97.0547 110.5 95.7656Z" fill="url(#paint3_angular_163_7061)"/>
<circle cx="127" cy="76" r="38" stroke="#8723EC" stroke-width="4"/>
<defs>
<filter id="filter0_f_163_7061" x="48" y="0.769165" width="157.25" height="148.231" filterUnits="userSpaceOnUse" color-interpolation-filters="sRGB">
<feFlood flood-opacity="0" result="BackgroundImageFix"/>
<feBlend mode="normal" in="SourceGraphic" in2="BackgroundImageFix" result="shape"/>
<feGaussianBlur stdDeviation="10" result="effect1_foregroundBlur_163_7061"/>
</filter>
<radialGradient id="paint0_angular_163_7061" cx="0" cy="0" r="1" gradientUnits="userSpaceOnUse" gradientTransform="translate(126.625 74.8846) rotate(90) scale(54.1154 58.625)">
<stop stop-color="#E392FF"/>
<stop offset="0.385" stop-color="#AF4DD1"/>
<stop offset="0.635" stop-color="#7441E0"/>
<stop offset="1" stop-color="#9A76E8"/>
</radialGradient>
<linearGradient id="paint1_linear_163_7061" x1="130" y1="-34.717" x2="130" y2="226.113" gradientUnits="userSpaceOnUse">
<stop stop-color="#4E23C7"/>
<stop offset="1" stop-color="white" stop-opacity="0"/>
</linearGradient>
<linearGradient id="paint2_linear_163_7061" x1="130" y1="76" x2="130" y2="292" gradientUnits="userSpaceOnUse">
<stop stop-color="white"/>
<stop offset="0.28" stop-color="white" stop-opacity="0"/>
</linearGradient>
<radialGradient id="paint3_angular_163_7061" cx="0" cy="0" r="1" gradientUnits="userSpaceOnUse" gradientTransform="translate(127 75.5) rotate(90) scale(28)">
<stop stop-color="#E392FF"/>
<stop offset="0.385" stop-color="#AF4DD1"/>
<stop offset="0.635" stop-color="#7441E0"/>
<stop offset="1" stop-color="#9A76E8"/>
</radialGradient>
</defs>
</svg>
