<svg width="163" height="151" viewBox="0 0 163 151" fill="none" xmlns="http://www.w3.org/2000/svg">
<circle cx="80.4166" cy="76.0001" r="32.5926" fill="#0B0A0A"/>
<path d="M65.7916 64.125C65.7916 58.8828 70.0885 54.5 75.4166 54.5H76.7916C77.4791 54.5 78.1666 55.1875 78.1666 55.875V57.25C78.1666 62.4922 74.0416 66.7031 68.9713 66.875C66.9088 69.7109 65.7916 73.0625 65.7916 76.5C65.7916 84.9219 72.4948 91.625 80.9166 91.625H81.8619C85.6432 91.625 89.2526 92.5703 92.6041 94.2031L93.4635 94.6328C94.4948 95.1484 94.9244 96.3516 94.4088 97.3828C93.8932 98.4141 92.6901 98.8438 91.6588 98.3281L90.7994 97.8984C88.0494 96.5234 84.9557 95.75 81.8619 95.75H80.9166H79.8854C76.7916 95.75 73.6979 96.5234 70.9479 97.8984L70.0885 98.3281C69.0573 98.8438 67.8541 98.4141 67.3385 97.3828C66.8229 96.3516 67.2526 95.1484 68.2838 94.6328L69.1432 94.2031C69.8307 93.8594 70.5182 93.5156 71.2916 93.2578C70.776 93 70.3463 92.6562 69.9166 92.3984C64.7604 94.8047 58.5729 92.9141 55.651 87.9297L54.9635 86.7266C54.6198 86.0391 54.8776 85.1797 55.4791 84.8359C56.6823 84.1484 57.9713 83.7188 59.2604 83.4609C55.7369 81.6562 53.4166 77.9609 53.4166 73.75V72.375C53.4166 71.6875 54.0182 71 54.7916 71C56.0807 71 57.4557 71.2578 58.6588 71.7734C56.5104 68.4219 56.3385 64.0391 58.401 60.4297L59.0885 59.2266C59.5182 58.5391 60.3776 58.3672 60.9791 58.7109C63.2994 60 64.8463 61.9766 65.7916 64.2109V64.125ZM92.8619 66.875C87.7057 66.7031 83.6666 62.4922 83.6666 57.25V55.875C83.6666 55.1875 84.2682 54.5 85.0416 54.5H86.4166C91.6588 54.5 96.0416 58.8828 96.0416 64.125V64.2109C96.901 61.9766 98.5338 60 100.768 58.7109C101.456 58.3672 102.229 58.5391 102.659 59.2266L103.346 60.4297C105.409 64.0391 105.237 68.4219 103.089 71.7734C104.378 71.2578 105.667 71.0859 107.042 71.0859C107.729 71.0859 108.417 71.6875 108.417 72.4609V73.8359C108.417 78.0469 106.01 81.6562 102.573 83.5469C103.776 83.7188 105.065 84.1484 106.268 84.8359C106.956 85.2656 107.128 86.0391 106.784 86.7266L106.096 87.9297C104.034 91.5391 100.167 93.5156 96.2994 93.4297C95.8698 92.9141 95.3541 92.4844 94.7526 92.2266L93.8932 91.7969C93.6354 91.625 93.3776 91.5391 93.1198 91.3672C92.2604 91.0234 91.3151 90.5938 90.3698 90.3359C89.7682 90.0781 89.0807 89.9062 88.3073 89.7344C92.9479 87.0703 96.0416 82.1719 96.0416 76.5C96.0416 73.0625 94.8385 69.7109 92.8619 66.875Z" fill="url(#paint0_angular_113_8065)"/>
<circle cx="80.4166" cy="76" r="38" stroke="#8723EC" stroke-width="4"/>
<g opacity="0.5">
<g filter="url(#filter0_f_113_8065)">
<ellipse cx="80.0417" cy="74.8847" rx="58.625" ry="54.1154" fill="url(#paint1_angular_113_8065)" fill-opacity="0.5"/>
</g>
</g>
<defs>
<filter id="filter0_f_113_8065" x="1.41669" y="0.769287" width="157.25" height="148.231" filterUnits="userSpaceOnUse" color-interpolation-filters="sRGB">
<feFlood flood-opacity="0" result="BackgroundImageFix"/>
<feBlend mode="normal" in="SourceGraphic" in2="BackgroundImageFix" result="shape"/>
<feGaussianBlur stdDeviation="10" result="effect1_foregroundBlur_113_8065"/>
</filter>
<radialGradient id="paint0_angular_113_8065" cx="0" cy="0" r="1" gradientUnits="userSpaceOnUse" gradientTransform="translate(80.9166 76) rotate(90) scale(29 29.5)">
<stop stop-color="#E392FF"/>
<stop offset="0.385" stop-color="#AF4DD1"/>
<stop offset="0.635" stop-color="#7441E0"/>
<stop offset="1" stop-color="#9A76E8"/>
</radialGradient>
<radialGradient id="paint1_angular_113_8065" cx="0" cy="0" r="1" gradientUnits="userSpaceOnUse" gradientTransform="translate(80.0417 74.8847) rotate(90) scale(54.1154 58.625)">
<stop stop-color="#E392FF"/>
<stop offset="0.385" stop-color="#AF4DD1"/>
<stop offset="0.635" stop-color="#7441E0"/>
<stop offset="1" stop-color="#9A76E8"/>
</radialGradient>
</defs>
</svg>
