<svg width="163" height="151" viewBox="0 0 163 151" fill="none" xmlns="http://www.w3.org/2000/svg">
<circle cx="80.4166" cy="76.0001" r="32.5926" fill="#0B0A0A"/>
<path d="M88.6666 77C88.6666 78.9766 88.4948 80.7812 88.3229 82.5H72.4244C72.2526 80.7812 72.1666 78.9766 72.1666 77C72.1666 75.1094 72.2526 73.3047 72.4244 71.5H88.3229C88.4948 73.3047 88.6666 75.1094 88.6666 77ZM91.0729 71.5H101.643C102.159 73.3047 102.417 75.1094 102.417 77C102.417 78.9766 102.159 80.7812 101.643 82.5H91.0729C91.2448 80.7812 91.4166 78.8906 91.4166 77C91.4166 75.1094 91.2448 73.3047 91.0729 71.5ZM100.784 68.75H90.7291C89.8698 63.3359 88.151 58.6953 86.0026 55.7734C92.7057 57.5781 98.2057 62.3906 100.784 68.75ZM87.9791 68.75H72.7682C73.2838 65.6562 74.1432 62.9062 75.0885 60.6719C76.0338 58.6094 76.9791 57.1484 78.0104 56.2031C78.9557 55.3438 79.7291 55 80.4166 55C81.0182 55 81.7916 55.3438 82.7369 56.2031C83.7682 57.1484 84.7135 58.6094 85.6588 60.6719C86.6041 62.9062 87.4635 65.6562 87.9791 68.75ZM70.0182 68.75H59.9635C62.5416 62.3906 68.0416 57.5781 74.7448 55.7734C72.5963 58.6953 70.8776 63.3359 70.0182 68.75ZM59.1041 71.5H69.6744C69.5026 73.3047 69.4166 75.1094 69.4166 77C69.4166 78.8906 69.5026 80.7812 69.6744 82.5H59.1041C58.5885 80.7812 58.4166 78.9766 58.4166 77C58.4166 75.1094 58.5885 73.3047 59.1041 71.5ZM75.0885 93.4141C74.1432 91.1797 73.2838 88.4297 72.7682 85.25H87.9791C87.4635 88.4297 86.6041 91.1797 85.6588 93.4141C84.7135 95.4766 83.7682 96.9375 82.7369 97.8828C81.7916 98.7422 81.0182 99 80.4166 99C79.7291 99 78.9557 98.7422 78.0104 97.8828C76.9791 96.9375 76.0338 95.4766 75.0885 93.4141ZM70.0182 85.25C70.8776 90.75 72.5963 95.3906 74.7448 98.3125C68.0416 96.5078 62.5416 91.6953 59.9635 85.25H70.0182ZM100.784 85.25C98.2057 91.6953 92.7057 96.5078 86.0026 98.3125C88.2369 95.3906 89.8698 90.75 90.7291 85.25H100.784Z" fill="url(#paint0_angular_113_8085)"/>
<circle cx="80.4166" cy="76" r="38" stroke="#8723EC" stroke-width="4"/>
<g opacity="0.5">
<g filter="url(#filter0_f_113_8085)">
<ellipse cx="80.0417" cy="74.8847" rx="58.625" ry="54.1154" fill="url(#paint1_angular_113_8085)" fill-opacity="0.5"/>
</g>
</g>
<defs>
<filter id="filter0_f_113_8085" x="1.41669" y="0.769287" width="157.25" height="148.231" filterUnits="userSpaceOnUse" color-interpolation-filters="sRGB">
<feFlood flood-opacity="0" result="BackgroundImageFix"/>
<feBlend mode="normal" in="SourceGraphic" in2="BackgroundImageFix" result="shape"/>
<feGaussianBlur stdDeviation="10" result="effect1_foregroundBlur_113_8085"/>
</filter>
<radialGradient id="paint0_angular_113_8085" cx="0" cy="0" r="1" gradientUnits="userSpaceOnUse" gradientTransform="translate(80.4166 76.5) rotate(90) scale(28)">
<stop stop-color="#E392FF"/>
<stop offset="0.385" stop-color="#AF4DD1"/>
<stop offset="0.635" stop-color="#7441E0"/>
<stop offset="1" stop-color="#9A76E8"/>
</radialGradient>
<radialGradient id="paint1_angular_113_8085" cx="0" cy="0" r="1" gradientUnits="userSpaceOnUse" gradientTransform="translate(80.0417 74.8847) rotate(90) scale(54.1154 58.625)">
<stop stop-color="#E392FF"/>
<stop offset="0.385" stop-color="#AF4DD1"/>
<stop offset="0.635" stop-color="#7441E0"/>
<stop offset="1" stop-color="#9A76E8"/>
</radialGradient>
</defs>
</svg>
