<svg width="37" height="36" viewBox="0 0 37 36" fill="none" xmlns="http://www.w3.org/2000/svg">
<path d="M12.1632 10.8828V4.80165C12.1632 4.22997 12.6125 3.78141 13.1835 3.78141H23.3873C23.959 3.78141 24.4076 4.23069 24.4076 4.80165V11.1276L27.469 12.8829V4.80165C27.469 2.55669 25.6323 0.719971 23.3873 0.719971H13.1835C10.9385 0.719971 9.10181 2.55669 9.10181 4.80165V12.6583L12.1632 10.8828Z" fill="#D936E7"/>
<path d="M18.5 35.2799C17.9795 35.2799 10.4583 31.9874 6.73451 30.3422C5.48315 29.7892 4.67603 28.5494 4.67603 27.1814V14.5446C4.67603 13.1039 5.56955 11.8144 6.91883 11.309L17.2868 7.42095C18.0695 7.12791 18.9313 7.12791 19.7139 7.42095L30.0819 11.309C31.4305 11.8151 32.3247 13.1046 32.3247 14.5446V27.1814C32.3247 28.5494 31.5176 29.7892 30.2663 30.3422C26.5424 31.9866 19.0213 35.2799 18.5007 35.2799H18.5Z" fill="url(#paint0_linear_113_8130)"/>
<path d="M17.878 33.2453C15.8735 32.454 11.3209 30.4805 7.42645 28.7597C6.80077 28.4832 6.40405 27.8654 6.40405 27.1822V14.5447C6.40405 13.8247 6.85117 13.1796 7.52509 12.9269L17.8931 9.03887C18.2841 8.89199 18.7153 8.89199 19.1063 9.03887L29.4743 12.9269C30.1489 13.1796 30.5953 13.8247 30.5953 14.5447V27.1836C30.5953 27.8683 30.2015 28.4832 29.5751 28.7604C26.4467 30.1421 21.3095 32.3813 19.1207 33.246C18.7139 33.4066 18.2841 33.4066 17.8765 33.246L17.878 33.2453Z" fill="#6525AF"/>
<path d="M24.0268 17.8113H12.9733C11.7522 17.8113 10.7622 18.8012 10.7622 20.0224V22.2328C10.7622 23.454 11.7522 24.4439 12.9733 24.4439H24.0268C25.2479 24.4439 26.2379 23.454 26.2379 22.2328V20.0224C26.2379 18.8012 25.2479 17.8113 24.0268 17.8113Z" fill="#D936E7"/>
<path d="M14.463 22.6591C14.2275 22.6591 14.0367 22.4683 14.0367 22.2328V20.0217C14.0367 19.7863 14.2275 19.5955 14.463 19.5955C14.6984 19.5955 14.8892 19.7863 14.8892 20.0217V22.2328C14.8892 22.4683 14.6984 22.6591 14.463 22.6591Z" fill="#FAFAFA"/>
<path d="M15.3759 22.176C15.2924 22.176 15.2096 22.1516 15.1361 22.1019L13.3095 20.8563C13.1144 20.7238 13.0647 20.4581 13.1972 20.2644C13.3311 20.0679 13.5968 20.0225 13.789 20.1521L15.6157 21.3977C15.8108 21.5302 15.8605 21.7959 15.728 21.9896C15.6459 22.1112 15.5113 22.176 15.3759 22.176Z" fill="#FAFAFA"/>
<path d="M13.55 22.176C13.4147 22.176 13.28 22.1112 13.198 21.9896C13.0655 21.7959 13.1159 21.5302 13.3103 21.3977L15.1369 20.1521C15.332 20.0225 15.597 20.0679 15.7288 20.2644C15.8612 20.4581 15.8108 20.7238 15.6164 20.8563L13.7898 22.1019C13.7164 22.1516 13.6336 22.176 13.55 22.176Z" fill="#FAFAFA"/>
<path d="M18.4994 22.6591C18.2639 22.6591 18.0731 22.4683 18.0731 22.2328V20.0217C18.0731 19.7863 18.2639 19.5955 18.4994 19.5955C18.7348 19.5955 18.9256 19.7863 18.9256 20.0217V22.2328C18.9256 22.4683 18.7348 22.6591 18.4994 22.6591Z" fill="#FAFAFA"/>
<path d="M19.413 22.176C19.3295 22.176 19.2467 22.1515 19.1725 22.1018L17.3466 20.8562C17.1529 20.7237 17.1025 20.4581 17.235 20.2637C17.3696 20.07 17.6346 20.0225 17.8276 20.1521L19.6535 21.3977C19.8472 21.5301 19.8976 21.7958 19.7651 21.9902C19.683 22.1112 19.5484 22.176 19.413 22.176Z" fill="#FAFAFA"/>
<path d="M17.5871 22.176C17.4517 22.176 17.3171 22.1112 17.235 21.9902C17.1025 21.7951 17.1529 21.5301 17.3466 21.3977L19.1725 20.1521C19.3684 20.0225 19.6326 20.07 19.7651 20.2637C19.8976 20.4588 19.8472 20.7237 19.6535 20.8562L17.8276 22.1018C17.7534 22.1515 17.6699 22.176 17.5871 22.176Z" fill="#FAFAFA"/>
<path d="M22.5371 22.6591C22.3016 22.6591 22.1108 22.4683 22.1108 22.2328V20.0217C22.1108 19.7863 22.3016 19.5955 22.5371 19.5955C22.7725 19.5955 22.9633 19.7863 22.9633 20.0217V22.2328C22.9633 22.4683 22.7725 22.6591 22.5371 22.6591Z" fill="#FAFAFA"/>
<path d="M23.45 22.176C23.3665 22.176 23.2837 22.1516 23.2102 22.1019L21.3836 20.8563C21.1885 20.7238 21.1388 20.4581 21.2713 20.2644C21.4045 20.0679 21.6709 20.0225 21.8631 20.1521L23.6898 21.3977C23.8849 21.5302 23.9346 21.7959 23.8021 21.9896C23.72 22.1112 23.5854 22.176 23.45 22.176Z" fill="#FAFAFA"/>
<path d="M21.6241 22.176C21.4888 22.176 21.3541 22.1112 21.2721 21.9896C21.1396 21.7959 21.19 21.5302 21.3844 21.3977L23.211 20.1521C23.404 20.0225 23.6697 20.0679 23.8029 20.2644C23.9353 20.4581 23.8849 20.7238 23.6905 20.8563L21.8639 22.1019C21.7905 22.1516 21.7077 22.176 21.6241 22.176Z" fill="#FAFAFA"/>
<defs>
<linearGradient id="paint0_linear_113_8130" x1="18.5004" y1="7.20117" x2="18.5004" y2="35.2799" gradientUnits="userSpaceOnUse">
<stop stop-color="#B691FF"/>
<stop offset="1" stop-color="#A532EA"/>
</linearGradient>
</defs>
</svg>
