<svg width="36" height="36" viewBox="0 0 36 36" fill="none" xmlns="http://www.w3.org/2000/svg">
<path d="M29.826 31.9013H2.79502C1.8619 31.9013 1.1059 31.1445 1.1059 30.2121V11.6275C1.1059 9.76126 2.61862 8.24854 4.48486 8.24854H29.8267C30.7598 8.24854 31.5158 9.00526 31.5158 9.93766V30.2114C31.5158 31.1445 30.7591 31.9005 29.8267 31.9005L29.826 31.9013Z" fill="url(#paint0_linear_113_8166)"/>
<path d="M27.406 16.1655V7.23826C27.406 6.50458 27.0144 5.82634 26.3786 5.45914L18.6472 0.995859C18.0115 0.628659 17.2281 0.628659 16.5931 0.995859L8.86173 5.45914C8.22597 5.82634 7.83429 6.50458 7.83429 7.23826V16.1655C7.83429 16.8992 8.22597 17.5775 8.86173 17.9447L16.5931 22.4079C17.2288 22.7751 18.0122 22.7751 18.6472 22.4079L26.3786 17.9447C27.0144 17.5775 27.406 16.8992 27.406 16.1655Z" fill="#D936E7"/>
<path d="M25.8631 15.6147V7.78827C25.8631 7.26483 25.5838 6.78171 25.1309 6.52035L18.3528 2.60715C17.8999 2.34579 17.3419 2.34579 16.8883 2.60715L10.1102 6.52035C9.65735 6.78171 9.37799 7.26555 9.37799 7.78827V15.6147C9.37799 16.1381 9.65735 16.6212 10.1102 16.8826L16.8883 20.7958C17.3412 21.0572 17.8992 21.0572 18.3528 20.7958L25.1309 16.8826C25.5838 16.6212 25.8631 16.1374 25.8631 15.6147Z" fill="#F16CFF"/>
<path d="M20.115 12.802L20.8589 8.31006H21.1467L20.4027 12.802H20.115ZM21.3713 9.80329C21.3772 9.65707 21.3345 9.54418 21.2432 9.46464C21.1531 9.38509 21.0169 9.34532 20.8344 9.34532C20.7104 9.34532 20.6028 9.36287 20.5115 9.39796C20.4203 9.43188 20.3472 9.47926 20.2922 9.54009C20.2384 9.59975 20.205 9.66877 20.1922 9.74714C20.1793 9.81148 20.1834 9.86763 20.2044 9.91559C20.2267 9.96355 20.2612 10.0051 20.308 10.0402C20.3559 10.0741 20.4127 10.1039 20.4782 10.1297C20.5437 10.1542 20.6133 10.1753 20.687 10.1928L20.9958 10.27C21.1467 10.3051 21.2824 10.3519 21.4029 10.4104C21.5246 10.4689 21.6263 10.5408 21.7082 10.6262C21.7913 10.7116 21.8498 10.8122 21.8837 10.928C21.9176 11.0438 21.9223 11.1766 21.8977 11.3264C21.8603 11.5463 21.7731 11.7369 21.6363 11.8984C21.4994 12.0586 21.3198 12.1832 21.0976 12.2721C20.8753 12.3599 20.618 12.4037 20.3255 12.4037C20.0354 12.4037 19.7903 12.3593 19.5903 12.2704C19.3903 12.1815 19.2446 12.0499 19.1534 11.8756C19.0633 11.7001 19.0364 11.4831 19.0727 11.2246H19.8079C19.795 11.3451 19.8126 11.4457 19.8605 11.5264C19.9097 11.6059 19.9828 11.6662 20.0799 11.7071C20.177 11.7469 20.291 11.7668 20.422 11.7668C20.5519 11.7668 20.6671 11.7481 20.7677 11.7106C20.8695 11.6732 20.9519 11.6211 21.0151 11.5545C21.0783 11.4878 21.1169 11.4112 21.1309 11.3246C21.145 11.2439 21.1327 11.176 21.0941 11.1211C21.0555 11.0661 20.9935 11.0193 20.9081 10.9807C20.8239 10.9409 20.7192 10.9058 20.594 10.8754L20.2185 10.7771C19.9284 10.7034 19.709 10.5882 19.5605 10.4315C19.4119 10.2747 19.3587 10.0636 19.4008 9.79803C19.4382 9.58045 19.5289 9.39036 19.6728 9.22776C19.8178 9.06399 20.0003 8.93706 20.2202 8.84699C20.4413 8.75575 20.6829 8.71013 20.9449 8.71013C21.2116 8.71013 21.4368 8.75633 21.6205 8.84875C21.8041 8.93999 21.9381 9.0675 22.0223 9.23127C22.1065 9.39504 22.1323 9.58571 22.0995 9.80329H21.3713Z" fill="white"/>
<path d="M16.8771 12.802L17.6211 8.31006H17.9089L17.1649 12.802H16.8771ZM18.1335 9.80329C18.1393 9.65707 18.0966 9.54418 18.0054 9.46464C17.9153 9.38509 17.779 9.34532 17.5965 9.34532C17.4725 9.34532 17.3649 9.36287 17.2737 9.39796C17.1824 9.43188 17.1093 9.47926 17.0543 9.54009C17.0005 9.59975 16.9672 9.66877 16.9543 9.74714C16.9414 9.81148 16.9455 9.86763 16.9666 9.91559C16.9888 9.96355 17.0233 10.0051 17.0701 10.0402C17.1181 10.0741 17.1748 10.1039 17.2403 10.1297C17.3058 10.1542 17.3754 10.1753 17.4491 10.1928L17.758 10.27C17.9089 10.3051 18.0446 10.3519 18.165 10.4104C18.2867 10.4689 18.3885 10.5408 18.4704 10.6262C18.5534 10.7116 18.6119 10.8122 18.6458 10.928C18.6797 11.0438 18.6844 11.1766 18.6599 11.3264C18.6224 11.5463 18.5353 11.7369 18.3984 11.8984C18.2615 12.0586 18.082 12.1832 17.8597 12.2721C17.6375 12.3599 17.3801 12.4037 17.0877 12.4037C16.7976 12.4037 16.5525 12.3593 16.3525 12.2704C16.1524 12.1815 16.0068 12.0499 15.9155 11.8756C15.8255 11.7001 15.7986 11.4831 15.8348 11.2246H16.57C16.5572 11.3451 16.5747 11.4457 16.6227 11.5264C16.6718 11.6059 16.7449 11.6662 16.842 11.7071C16.9391 11.7469 17.0532 11.7668 17.1842 11.7668C17.314 11.7668 17.4292 11.7481 17.5298 11.7106C17.6316 11.6732 17.7141 11.6211 17.7773 11.5545C17.8404 11.4878 17.879 11.4112 17.8931 11.3246C17.9071 11.2439 17.8948 11.176 17.8562 11.1211C17.8176 11.0661 17.7556 11.0193 17.6702 10.9807C17.586 10.9409 17.4813 10.9058 17.3561 10.8754L16.9806 10.7771C16.6905 10.7034 16.4712 10.5882 16.3226 10.4315C16.1741 10.2747 16.1208 10.0636 16.163 9.79803C16.2004 9.58045 16.291 9.39036 16.4349 9.22776C16.58 9.06399 16.7625 8.93706 16.9824 8.84699C17.2035 8.75575 17.445 8.71013 17.7071 8.71013C17.9738 8.71013 18.199 8.75633 18.3826 8.84875C18.5663 8.93999 18.7002 9.0675 18.7844 9.23127C18.8687 9.39504 18.8944 9.58571 18.8616 9.80329H18.1335Z" fill="white"/>
<path d="M13.6393 12.802L14.3833 8.31006H14.6711L13.9271 12.802H13.6393ZM14.8957 9.80329C14.9015 9.65707 14.8588 9.54418 14.7676 9.46464C14.6775 9.38509 14.5412 9.34532 14.3587 9.34532C14.2347 9.34532 14.1271 9.36287 14.0359 9.39796C13.9446 9.43188 13.8715 9.47926 13.8165 9.54009C13.7627 9.59975 13.7294 9.66877 13.7165 9.74714C13.7037 9.81148 13.7077 9.86763 13.7288 9.91559C13.751 9.96355 13.7855 10.0051 13.8323 10.0402C13.8803 10.0741 13.937 10.1039 14.0025 10.1297C14.068 10.1542 14.1376 10.1753 14.2113 10.1928L14.5202 10.27C14.6711 10.3051 14.8068 10.3519 14.9272 10.4104C15.0489 10.4689 15.1507 10.5408 15.2326 10.6262C15.3156 10.7116 15.3741 10.8122 15.408 10.928C15.442 11.0438 15.4466 11.1766 15.4221 11.3264C15.3846 11.5463 15.2975 11.7369 15.1606 11.8984C15.0238 12.0586 14.8442 12.1832 14.6219 12.2721C14.3997 12.3599 14.1423 12.4037 13.8499 12.4037C13.5598 12.4037 13.3147 12.3593 13.1147 12.2704C12.9146 12.1815 12.769 12.0499 12.6777 11.8756C12.5877 11.7001 12.5608 11.4831 12.597 11.2246H13.3322C13.3194 11.3451 13.3369 11.4457 13.3849 11.5264C13.434 11.6059 13.5071 11.6662 13.6042 11.7071C13.7013 11.7469 13.8154 11.7668 13.9464 11.7668C14.0762 11.7668 14.1915 11.7481 14.2921 11.7106C14.3938 11.6732 14.4763 11.6211 14.5395 11.5545C14.6026 11.4878 14.6412 11.4112 14.6553 11.3246C14.6693 11.2439 14.657 11.176 14.6184 11.1211C14.5798 11.0661 14.5178 11.0193 14.4324 10.9807C14.3482 10.9409 14.2435 10.9058 14.1183 10.8754L13.7428 10.7771C13.4527 10.7034 13.2334 10.5882 13.0848 10.4315C12.9363 10.2747 12.883 10.0636 12.9252 9.79803C12.9626 9.58045 13.0533 9.39036 13.1971 9.22776C13.3422 9.06399 13.5247 8.93706 13.7446 8.84699C13.9657 8.75575 14.2072 8.71013 14.4693 8.71013C14.736 8.71013 14.9612 8.75633 15.1448 8.84875C15.3285 8.93999 15.4624 9.0675 15.5466 9.23127C15.6309 9.39504 15.6566 9.58571 15.6239 9.80329H14.8957Z" fill="white"/>
<path d="M33.2049 35.2799H2.79502C1.8619 35.2799 1.1059 34.5232 1.1059 33.5908V11.6272H33.2057C34.1388 11.6272 34.8948 12.3839 34.8948 13.3163V33.5901C34.8948 34.5232 34.1381 35.2792 33.2057 35.2792L33.2049 35.2799Z" fill="#6525AF"/>
<path d="M26.447 20.075H34.8941V26.8329H26.447C24.5822 26.8329 23.0681 25.3187 23.0681 23.4539C23.0681 21.5891 24.5822 20.075 26.447 20.075Z" fill="url(#paint1_linear_113_8166)"/>
<path d="M24.7579 22.4553H1.15704V24.1444H24.7579V22.4553Z" fill="url(#paint2_linear_113_8166)"/>
<defs>
<linearGradient id="paint0_linear_113_8166" x1="16.3109" y1="8.24854" x2="16.3109" y2="31.9013" gradientUnits="userSpaceOnUse">
<stop stop-color="#B691FF"/>
<stop offset="1" stop-color="#A532EA"/>
</linearGradient>
<linearGradient id="paint1_linear_113_8166" x1="28.9811" y1="20.075" x2="28.9811" y2="26.8329" gradientUnits="userSpaceOnUse">
<stop stop-color="#B691FF"/>
<stop offset="1" stop-color="#A532EA"/>
</linearGradient>
<linearGradient id="paint2_linear_113_8166" x1="12.9575" y1="22.4553" x2="12.9575" y2="24.1444" gradientUnits="userSpaceOnUse">
<stop stop-color="#B691FF"/>
<stop offset="1" stop-color="#A532EA"/>
</linearGradient>
</defs>
</svg>
