<svg width="36" height="36" viewBox="0 0 36 36" fill="none" xmlns="http://www.w3.org/2000/svg">
<path d="M27.5104 11.9383C27.3456 11.9383 27.1785 11.8749 27.0518 11.7489L25.3252 10.0224C25.074 9.76965 25.074 9.35997 25.3252 9.10653L27.0518 7.37997C27.3045 7.12725 27.7164 7.12725 27.9691 7.37997C28.2204 7.63269 28.2204 8.04237 27.9691 8.29581L26.6997 9.56445L27.9691 10.8331C28.2204 11.0858 28.2204 11.4955 27.9691 11.7489C27.8424 11.8756 27.676 11.9383 27.5104 11.9383Z" fill="#9962EF"/>
<path d="M32.6901 24.0243C32.333 24.0243 32.0428 23.7341 32.0428 23.377V13.0176C32.0428 11.4704 30.785 10.2118 29.237 10.2118H25.7839C25.4268 10.2118 25.1366 9.92164 25.1366 9.56452C25.1366 9.2074 25.4268 8.91724 25.7839 8.91724H29.237C31.4978 8.91724 33.3374 10.7568 33.3374 13.0176V23.377C33.3374 23.7341 33.0472 24.0243 32.6901 24.0243Z" fill="#9962EF"/>
<path d="M8.51832 30.9305C8.35344 30.9305 8.1864 30.8671 8.05968 30.7411C7.8084 30.4884 7.8084 30.0787 8.05968 29.8253L9.32904 28.5566L8.05968 27.288C7.8084 27.0353 7.8084 26.6256 8.05968 26.3722C8.3124 26.1194 8.72424 26.1194 8.97696 26.3722L10.7035 28.0987C10.9548 28.3514 10.9548 28.7611 10.7035 29.0146L8.97696 30.7411C8.85024 30.8678 8.68392 30.9305 8.51832 30.9305Z" fill="#9962EF"/>
<path d="M10.2449 29.204H6.79175C4.53095 29.204 2.69135 27.3644 2.69135 25.1036V14.7442C2.69135 14.3871 2.98151 14.0969 3.33863 14.0969C3.69575 14.0969 3.98591 14.3871 3.98591 14.7442V25.1036C3.98591 26.6508 5.24375 27.9094 6.79175 27.9094H10.2449C10.602 27.9094 10.8921 28.1996 10.8921 28.5567C10.8921 28.9138 10.602 29.204 10.2449 29.204Z" fill="#9962EF"/>
<path d="M24.8026 34.9927C19.026 34.9927 14.3251 30.2926 14.3251 24.5153C14.3251 18.738 19.026 14.0378 24.8026 14.0378C30.5791 14.0378 35.28 18.738 35.28 24.5153C35.28 30.2926 30.5791 34.9927 24.8026 34.9927Z" fill="url(#paint0_linear_113_8148)"/>
<path d="M33.6384 24.5153C33.6384 29.3947 29.6827 33.3511 24.8026 33.3511C19.9231 33.3511 15.9667 29.3954 15.9667 24.5153C15.9667 19.6351 19.9224 15.6794 24.8026 15.6794C29.682 15.6794 33.6384 19.6351 33.6384 24.5153Z" fill="#6525AF"/>
<path d="M20.9491 16.9711V7.7443C20.9491 6.98542 20.5444 6.28486 19.8871 5.90542L11.8958 1.29166C11.2385 0.91222 10.4292 0.91222 9.77253 1.29166L1.78197 5.9047C1.12461 6.28414 0.719971 6.9847 0.719971 7.74358V16.9704C0.719971 17.7293 1.12461 18.4298 1.78197 18.8093L9.77325 23.423C10.4306 23.8025 11.2399 23.8025 11.8965 23.423L19.8878 18.8093C20.5452 18.4298 20.9498 17.7293 20.9498 16.9704L20.9491 16.9711Z" fill="#D936E7"/>
<path d="M19.3536 16.4024V8.3125C19.3536 7.77178 19.0649 7.2721 18.5969 7.0021L11.5913 2.95714C11.1233 2.68714 10.5458 2.68714 10.0778 2.95714L3.07221 7.0021C2.60421 7.2721 2.31549 7.77178 2.31549 8.3125V16.4024C2.31549 16.9431 2.60421 17.4428 3.07221 17.7128L10.0778 21.7578C10.5458 22.0278 11.1233 22.0278 11.5913 21.7578L18.5969 17.7128C19.0649 17.4428 19.3536 16.9431 19.3536 16.4024Z" fill="#F16CFF"/>
<path d="M9.45875 17.4441L11.1593 7.27637H11.817L10.1165 17.4441H9.45875ZM12.3304 10.6563C12.3438 10.3254 12.2462 10.0698 12.0376 9.88978C11.8317 9.70973 11.5202 9.6197 11.1031 9.6197C10.8197 9.6197 10.5737 9.65942 10.3652 9.73886C10.1566 9.81564 9.9895 9.92288 9.86383 10.0606C9.74084 10.1956 9.66463 10.3518 9.63522 10.5292C9.60581 10.6749 9.61517 10.802 9.6633 10.9105C9.7141 11.0191 9.79298 11.1131 9.89993 11.1925C10.0096 11.2693 10.1392 11.3368 10.289 11.3951C10.4387 11.4507 10.5978 11.4983 10.7662 11.5381L11.4721 11.7128C11.817 11.7923 12.1272 11.8982 12.4026 12.0306C12.6807 12.163 12.9133 12.3258 13.1005 12.5191C13.2903 12.7124 13.424 12.9401 13.5015 13.2022C13.5791 13.4644 13.5898 13.7649 13.5336 14.1038C13.4481 14.6016 13.2489 15.0332 12.936 15.3986C12.6232 15.7614 12.2128 16.0434 11.7047 16.2446C11.1967 16.4432 10.6085 16.5425 9.94003 16.5425C9.27693 16.5425 8.71677 16.4419 8.25955 16.2406C7.80233 16.0394 7.46945 15.7415 7.26089 15.347C7.05501 14.9498 6.99351 14.4586 7.0764 13.8735H8.75688C8.72747 14.1462 8.76757 14.3739 8.8772 14.5566C8.9895 14.7367 9.15661 14.873 9.37854 14.9657C9.60046 15.0557 9.86116 15.1007 10.1606 15.1007C10.4574 15.1007 10.7208 15.0584 10.9507 14.9736C11.1833 14.8889 11.3719 14.7711 11.5162 14.6201C11.6606 14.4692 11.7489 14.2958 11.7809 14.0998C11.813 13.9171 11.785 13.7636 11.6967 13.6391C11.6085 13.5147 11.4668 13.4088 11.2716 13.3214C11.0791 13.2314 10.8398 13.1519 10.5537 13.0831L9.69538 12.8607C9.03228 12.6938 8.53094 12.433 8.19137 12.0782C7.8518 11.7234 7.73014 11.2455 7.8264 10.6444C7.91196 10.1519 8.11918 9.72165 8.44806 9.3536C8.77961 8.9829 9.19672 8.69561 9.69939 8.49173C10.2047 8.28519 10.7569 8.18193 11.3558 8.18193C11.9654 8.18193 12.4801 8.28652 12.8999 8.4957C13.3197 8.70223 13.6259 8.99084 13.8184 9.36154C14.0109 9.73224 14.0697 10.1638 13.9948 10.6563H12.3304Z" fill="white"/>
<path d="M23.6396 29.3274L25.3401 19.1597H25.9978L24.2973 29.3274H23.6396ZM21.173 28.3106L22.5366 20.1764H25.8254C26.4297 20.1764 26.919 20.2651 27.2933 20.4425C27.6703 20.62 27.9337 20.8662 28.0834 21.1813C28.2331 21.4937 28.2732 21.8538 28.2037 22.2616C28.1476 22.5794 28.0339 22.8574 27.8628 23.0957C27.6944 23.334 27.4858 23.5299 27.2371 23.6835C26.9885 23.8371 26.7184 23.9456 26.427 24.0092L26.4109 24.0886C26.7211 24.1019 27.0005 24.1892 27.2492 24.3508C27.4978 24.5096 27.6837 24.7347 27.8067 25.026C27.9297 25.3172 27.9577 25.6628 27.8909 26.0626C27.8187 26.4942 27.6462 26.8794 27.3735 27.2184C27.1008 27.5546 26.7371 27.8207 26.2826 28.0167C25.8307 28.2126 25.2973 28.3106 24.6823 28.3106H21.173ZM23.1502 26.9046H24.566C25.0473 26.9046 25.415 26.8119 25.669 26.6266C25.923 26.4412 26.0754 26.1963 26.1262 25.8918C26.1609 25.6667 26.1382 25.4681 26.058 25.296C25.9805 25.1239 25.8481 24.9889 25.6609 24.8909C25.4764 24.7929 25.2425 24.744 24.9591 24.744H23.5072L23.1502 26.9046ZM23.7077 23.5802H24.9952C25.2305 23.5802 25.4484 23.5392 25.6489 23.4571C25.8521 23.3724 26.0192 23.2532 26.1502 23.0997C26.2839 22.9434 26.3682 22.7594 26.4029 22.5476C26.451 22.251 26.3842 22.014 26.2024 21.8366C26.0232 21.6566 25.7425 21.5666 25.3601 21.5666H24.0446L23.7077 23.5802Z" fill="white"/>
<defs>
<linearGradient id="paint0_linear_113_8148" x1="24.8026" y1="14.0378" x2="24.8026" y2="34.9927" gradientUnits="userSpaceOnUse">
<stop stop-color="#B691FF"/>
<stop offset="1" stop-color="#A532EA"/>
</linearGradient>
</defs>
</svg>
