<svg width="412" height="44" viewBox="0 0 412 44" fill="none" xmlns="http://www.w3.org/2000/svg">
<path d="M42.5 16.5C42.5 24.0747 45.8817 24.5412 43.5 29.5C41.2799 34.1224 33.5608 43.5002 26.5 43.5002C18.517 43.5002 14.8584 39.5844 10 34.0002C5.95133 29.3468 0 25.6527 0 19.0002C0 4.36462 11.8645 0 26.5 0C41.1355 0 42.5 1.86445 42.5 16.5Z" fill="#FCD634"/>
<path d="M25.6469 29.384C23.3002 29.384 21.4762 28.9253 20.1749 28.008C18.8735 27.0693 18.2229 25.6827 18.2229 23.848C18.2229 23.592 18.3509 23.464 18.6069 23.464H22.0309C22.3082 23.464 22.4469 23.592 22.4469 23.848C22.4469 24.36 22.7029 24.7973 23.2149 25.16C23.7482 25.5227 24.5375 25.704 25.5829 25.704C26.7989 25.704 27.7055 25.4053 28.3029 24.808C28.9215 24.2107 29.2309 23.2613 29.2309 21.96V14.856C29.2309 13.7467 28.9322 12.8827 28.3349 12.264C27.7589 11.624 26.8522 11.304 25.6149 11.304C24.8469 11.304 24.2069 11.432 23.6949 11.688C23.2042 11.944 22.8309 12.3173 22.5749 12.808C22.3402 13.2773 22.2229 13.8747 22.2229 14.6V15.432C22.2229 16.2427 22.5002 16.8827 23.0549 17.352C23.6309 17.8 24.3775 18.024 25.2949 18.024C26.0842 18.024 26.8415 17.8747 27.5669 17.576C28.3135 17.256 29.0495 16.7973 29.7749 16.2V19.336C28.9002 20.0187 27.9615 20.5627 26.9589 20.968C25.9775 21.3733 24.9322 21.576 23.8229 21.576C21.7535 21.576 20.2175 21.0107 19.2149 19.88C18.2335 18.728 17.7429 17.1173 17.7429 15.048C17.7429 12.552 18.4042 10.696 19.7269 9.48C21.0709 8.264 23.0655 7.656 25.7109 7.656C28.4202 7.656 30.4255 8.296 31.7269 9.576C33.0495 10.856 33.7109 12.8187 33.7109 15.464V21.64C33.7109 24.1573 33.0282 26.0773 31.6629 27.4C30.3189 28.7227 28.3135 29.384 25.6469 29.384Z" fill="#0B0A0A"/>
<path d="M58.6679 29.384C55.7879 29.384 53.6012 28.6907 52.1079 27.304C50.6359 25.9173 49.8999 23.9013 49.8999 21.256V15.784C49.8999 13.1173 50.6359 11.1013 52.1079 9.736C53.6012 8.34933 55.7879 7.656 58.6679 7.656C61.5692 7.656 63.7559 8.34933 65.2279 9.736C66.7212 11.1013 67.4679 13.1173 67.4679 15.784V21.256C67.4679 23.9013 66.7212 25.9173 65.2279 27.304C63.7559 28.6907 61.5692 29.384 58.6679 29.384ZM58.6679 25.416C60.0972 25.416 61.1532 25.0427 61.8359 24.296C62.5399 23.528 62.8919 22.4293 62.8919 21V16.04C62.8919 14.6107 62.5399 13.5227 61.8359 12.776C61.1532 12.008 60.0972 11.624 58.6679 11.624C57.2812 11.624 56.2359 12.008 55.5319 12.776C54.8279 13.5227 54.4759 14.6107 54.4759 16.04V21C54.4759 22.4293 54.8279 23.528 55.5319 24.296C56.2359 25.0427 57.2812 25.416 58.6679 25.416ZM77.9391 29.384C75.5925 29.384 73.7791 28.8187 72.4991 27.688C71.2405 26.536 70.6111 24.8933 70.6111 22.76V19.4C70.6111 17.2667 71.2405 15.6347 72.4991 14.504C73.7791 13.352 75.5925 12.776 77.9391 12.776C79.4751 12.776 80.7658 13.032 81.8111 13.544C82.8565 14.056 83.6351 14.7387 84.1471 15.592C84.6805 16.424 84.9045 17.3733 84.8191 18.44C84.7978 18.8453 84.6591 19.048 84.4031 19.048H81.0111C80.9045 19.048 80.8085 19.0053 80.7231 18.92C80.6591 18.8347 80.6271 18.7173 80.6271 18.568C80.6271 17.9067 80.3925 17.4053 79.9231 17.064C79.4538 16.7227 78.8138 16.552 78.0031 16.552C77.0218 16.552 76.2858 16.808 75.7951 17.32C75.3045 17.832 75.0591 18.664 75.0591 19.816V22.344C75.0591 23.496 75.3045 24.328 75.7951 24.84C76.2858 25.3307 77.0111 25.576 77.9711 25.576C78.8245 25.576 79.4751 25.3947 79.9231 25.032C80.3711 24.6693 80.5951 24.1893 80.5951 23.592C80.5951 23.272 80.7231 23.112 80.9791 23.112H84.3711C84.6271 23.112 84.7658 23.2507 84.7871 23.528C84.8725 25.2987 84.3285 26.7173 83.1551 27.784C82.0031 28.8507 80.2645 29.384 77.9391 29.384ZM94.7151 29.384C93.3925 29.384 92.3258 29.192 91.5151 28.808C90.7258 28.4027 90.1498 27.784 89.7871 26.952C89.4458 26.0987 89.2751 24.9893 89.2751 23.624V16.872H86.9711C86.6938 16.872 86.5551 16.7333 86.5551 16.456V13.576C86.5551 13.2987 86.6938 13.16 86.9711 13.16H89.4031L89.8831 9.352C89.9471 9.07467 90.0965 8.936 90.3311 8.936H93.3071C93.5845 8.936 93.7231 9.07467 93.7231 9.352V13.16H97.8511C98.1285 13.16 98.2671 13.2987 98.2671 13.576V16.456C98.2671 16.7333 98.1285 16.872 97.8511 16.872H93.7231V23.336C93.7231 24.104 93.8725 24.6693 94.1711 25.032C94.4698 25.3947 94.9498 25.576 95.6111 25.576C95.9738 25.576 96.3365 25.544 96.6991 25.48C97.0831 25.3947 97.4565 25.288 97.8191 25.16C97.9685 25.096 98.0858 25.096 98.1711 25.16C98.2565 25.224 98.2991 25.3307 98.2991 25.48V28.392C98.2991 28.6053 98.1925 28.7653 97.9791 28.872C97.5525 29.0213 97.0511 29.1387 96.4751 29.224C95.8991 29.3307 95.3125 29.384 94.7151 29.384ZM107.659 29.384C105.333 29.384 103.52 28.8293 102.219 27.72C100.939 26.6107 100.299 24.9467 100.299 22.728V19.432C100.299 17.2133 100.939 15.5493 102.219 14.44C103.52 13.3307 105.333 12.776 107.659 12.776C110.005 12.776 111.819 13.3307 113.099 14.44C114.379 15.5493 115.019 17.2133 115.019 19.432V22.728C115.019 24.9467 114.379 26.6107 113.099 27.72C111.819 28.8293 110.005 29.384 107.659 29.384ZM107.659 25.608C108.683 25.608 109.419 25.352 109.867 24.84C110.336 24.3067 110.571 23.464 110.571 22.312V19.848C110.571 18.696 110.336 17.864 109.867 17.352C109.419 16.8187 108.683 16.552 107.659 16.552C106.656 16.552 105.92 16.8187 105.451 17.352C104.981 17.864 104.747 18.696 104.747 19.848V22.312C104.747 23.464 104.981 24.3067 105.451 24.84C105.92 25.352 106.656 25.608 107.659 25.608ZM125.381 29.384C124.506 29.384 123.696 29.3307 122.949 29.224C122.202 29.1387 121.445 29.0427 120.677 28.936C119.93 28.808 119.12 28.712 118.245 28.648V7.56C118.245 7.28267 118.384 7.144 118.661 7.144H122.277C122.554 7.144 122.693 7.28267 122.693 7.56V25.48C123.077 25.544 123.461 25.608 123.845 25.672C124.25 25.7147 124.634 25.736 124.997 25.736C125.978 25.736 126.704 25.4693 127.173 24.936C127.642 24.3813 127.877 23.5707 127.877 22.504V19.208C127.877 18.2907 127.717 17.6293 127.397 17.224C127.077 16.8187 126.586 16.616 125.925 16.616C125.392 16.616 124.826 16.776 124.229 17.096C123.653 17.3947 122.96 17.8853 122.149 18.568L122.245 15.24C123.141 14.408 124.037 13.7893 124.933 13.384C125.829 12.9787 126.746 12.776 127.685 12.776C129.242 12.776 130.405 13.2347 131.173 14.152C131.941 15.048 132.325 16.4347 132.325 18.312V22.888C132.325 25.0853 131.76 26.7173 130.629 27.784C129.498 28.8507 127.749 29.384 125.381 29.384ZM142.469 29.384C139.994 29.384 138.16 28.8613 136.965 27.816C135.792 26.7493 135.205 25.1813 135.205 23.112V19.432C135.205 17.256 135.792 15.6027 136.965 14.472C138.16 13.3413 139.973 12.776 142.405 12.776C144.773 12.776 146.554 13.32 147.749 14.408C148.965 15.496 149.573 17.096 149.573 19.208V21.704C149.573 21.9813 149.434 22.12 149.157 22.12H139.621V23.08C139.621 24.0613 139.834 24.7973 140.261 25.288C140.709 25.7573 141.434 25.992 142.437 25.992C143.205 25.992 143.813 25.8747 144.261 25.64C144.709 25.384 144.933 25.0107 144.933 24.52C144.933 24.2427 145.072 24.104 145.349 24.104H148.837C149.093 24.104 149.232 24.2427 149.253 24.52C149.296 26.1413 148.752 27.3573 147.621 28.168C146.49 28.9787 144.773 29.384 142.469 29.384ZM139.621 19.432H145.221V19.272C145.221 18.2053 144.997 17.4267 144.549 16.936C144.101 16.4453 143.408 16.2 142.469 16.2C141.466 16.2 140.741 16.456 140.293 16.968C139.845 17.4587 139.621 18.2373 139.621 19.304V19.432ZM153.192 29C152.915 29 152.776 28.8613 152.776 28.584V17.192C152.776 16.5307 152.755 15.912 152.712 15.336C152.691 14.7387 152.648 14.1627 152.584 13.608C152.542 13.3093 152.68 13.16 153 13.16H156.168C156.296 13.16 156.392 13.192 156.456 13.256C156.542 13.2987 156.595 13.384 156.616 13.512C156.702 13.8747 156.766 14.2907 156.808 14.76C156.851 15.2293 156.883 15.6667 156.904 16.072L157.224 18.024V28.584C157.224 28.8613 157.086 29 156.808 29H153.192ZM156.904 19.752L156.648 16.04C157.075 15.4213 157.566 14.8667 158.12 14.376C158.675 13.8853 159.23 13.5013 159.784 13.224C160.36 12.9253 160.894 12.776 161.384 12.776C161.726 12.776 162.003 12.8187 162.216 12.904C162.366 12.9253 162.451 12.9787 162.472 13.064C162.515 13.1493 162.547 13.2453 162.568 13.352C162.568 13.9067 162.558 14.5147 162.536 15.176C162.536 15.8373 162.504 16.456 162.44 17.032C162.419 17.1813 162.366 17.288 162.28 17.352C162.216 17.416 162.11 17.4373 161.96 17.416C161.832 17.3733 161.672 17.3413 161.48 17.32C161.288 17.2987 161.107 17.288 160.936 17.288C160.488 17.288 160.03 17.384 159.56 17.576C159.091 17.768 158.622 18.0453 158.152 18.408C157.704 18.7493 157.288 19.1973 156.904 19.752Z" fill="#FCD634"/>
<path d="M294.476 15.0041C294.476 29.6396 289.112 35.5041 274.476 35.5041C266.493 35.5041 249.834 44.0882 244.976 38.5041C240.927 33.8507 240.976 24.1568 240.976 17.5043C240.976 2.86872 254.341 1.00415 268.976 1.00415C283.612 1.00415 294.476 0.368557 294.476 15.0041Z" fill="#FCD634"/>
<circle cx="199.452" cy="24.5" r="6.5" fill="#FCD634"/>
<path d="M250.706 29C250.429 29 250.29 28.8613 250.29 28.584V25.576C250.29 25.2987 250.429 25.16 250.706 25.16H255.474V12.648L250.962 14.056C250.834 14.0987 250.727 14.0987 250.642 14.056C250.557 13.992 250.514 13.8853 250.514 13.736V10.792C250.514 10.5573 250.621 10.3973 250.834 10.312L258.162 7.976C258.247 7.93333 258.333 7.912 258.418 7.912C258.525 7.89067 258.621 7.88 258.706 7.88H259.538C259.815 7.88 259.954 8.01867 259.954 8.296V25.16H264.306C264.562 25.16 264.69 25.2987 264.69 25.576V28.584C264.69 28.8613 264.562 29 264.306 29H250.706ZM274.676 29.384C272.01 29.384 269.962 28.8827 268.532 27.88C267.124 26.856 266.42 25.3307 266.42 23.304C266.42 21.9387 266.74 20.7973 267.38 19.88C268.042 18.9627 268.959 18.28 270.132 17.832C269.236 17.448 268.554 16.8613 268.084 16.072C267.615 15.2613 267.38 14.2693 267.38 13.096C267.38 11.368 267.999 10.0347 269.236 9.096C270.474 8.136 272.287 7.656 274.676 7.656C277.066 7.656 278.879 8.136 280.116 9.096C281.375 10.0347 282.004 11.368 282.004 13.096C282.004 14.2693 281.759 15.2613 281.268 16.072C280.799 16.8613 280.127 17.448 279.252 17.832C280.447 18.28 281.364 18.9627 282.004 19.88C282.644 20.7973 282.964 21.9387 282.964 23.304C282.964 25.3307 282.25 26.856 280.82 27.88C279.412 28.8827 277.364 29.384 274.676 29.384ZM274.676 25.768C275.935 25.768 276.884 25.5333 277.524 25.064C278.164 24.5733 278.484 23.8907 278.484 23.016V22.536C278.484 21.576 278.154 20.84 277.492 20.328C276.831 19.816 275.892 19.56 274.676 19.56C273.482 19.56 272.554 19.816 271.892 20.328C271.231 20.84 270.9 21.576 270.9 22.536V23.016C270.9 23.8907 271.22 24.5733 271.86 25.064C272.5 25.5333 273.439 25.768 274.676 25.768ZM274.676 16.36C275.636 16.36 276.372 16.1573 276.884 15.752C277.396 15.3253 277.652 14.728 277.652 13.96V13.48C277.652 12.7547 277.396 12.1787 276.884 11.752C276.372 11.3253 275.636 11.112 274.676 11.112C273.738 11.112 273.012 11.3253 272.5 11.752C271.988 12.1787 271.732 12.7547 271.732 13.48V13.96C271.732 14.728 271.988 15.3253 272.5 15.752C273.012 16.1573 273.738 16.36 274.676 16.36Z" fill="#0B0A0A"/>
<path d="M307.511 29.384C304.631 29.384 302.444 28.6907 300.951 27.304C299.479 25.9173 298.743 23.9013 298.743 21.256V15.784C298.743 13.1173 299.479 11.1013 300.951 9.736C302.444 8.34933 304.631 7.656 307.511 7.656C310.412 7.656 312.599 8.34933 314.071 9.736C315.564 11.1013 316.311 13.1173 316.311 15.784V21.256C316.311 23.9013 315.564 25.9173 314.071 27.304C312.599 28.6907 310.412 29.384 307.511 29.384ZM307.511 25.416C308.94 25.416 309.996 25.0427 310.679 24.296C311.383 23.528 311.735 22.4293 311.735 21V16.04C311.735 14.6107 311.383 13.5227 310.679 12.776C309.996 12.008 308.94 11.624 307.511 11.624C306.124 11.624 305.079 12.008 304.375 12.776C303.671 13.5227 303.319 14.6107 303.319 16.04V21C303.319 22.4293 303.671 23.528 304.375 24.296C305.079 25.0427 306.124 25.416 307.511 25.416ZM326.782 29.384C324.435 29.384 322.622 28.8187 321.342 27.688C320.083 26.536 319.454 24.8933 319.454 22.76V19.4C319.454 17.2667 320.083 15.6347 321.342 14.504C322.622 13.352 324.435 12.776 326.782 12.776C328.318 12.776 329.609 13.032 330.654 13.544C331.699 14.056 332.478 14.7387 332.99 15.592C333.523 16.424 333.747 17.3733 333.662 18.44C333.641 18.8453 333.502 19.048 333.246 19.048H329.854C329.747 19.048 329.651 19.0053 329.566 18.92C329.502 18.8347 329.47 18.7173 329.47 18.568C329.47 17.9067 329.235 17.4053 328.766 17.064C328.297 16.7227 327.657 16.552 326.846 16.552C325.865 16.552 325.129 16.808 324.638 17.32C324.147 17.832 323.902 18.664 323.902 19.816V22.344C323.902 23.496 324.147 24.328 324.638 24.84C325.129 25.3307 325.854 25.576 326.814 25.576C327.667 25.576 328.318 25.3947 328.766 25.032C329.214 24.6693 329.438 24.1893 329.438 23.592C329.438 23.272 329.566 23.112 329.822 23.112H333.214C333.47 23.112 333.609 23.2507 333.63 23.528C333.715 25.2987 333.171 26.7173 331.998 27.784C330.846 28.8507 329.107 29.384 326.782 29.384ZM343.558 29.384C342.235 29.384 341.169 29.192 340.358 28.808C339.569 28.4027 338.993 27.784 338.63 26.952C338.289 26.0987 338.118 24.9893 338.118 23.624V16.872H335.814C335.537 16.872 335.398 16.7333 335.398 16.456V13.576C335.398 13.2987 335.537 13.16 335.814 13.16H338.246L338.726 9.352C338.79 9.07467 338.939 8.936 339.174 8.936H342.15C342.427 8.936 342.566 9.07467 342.566 9.352V13.16H346.694C346.971 13.16 347.11 13.2987 347.11 13.576V16.456C347.11 16.7333 346.971 16.872 346.694 16.872H342.566V23.336C342.566 24.104 342.715 24.6693 343.014 25.032C343.313 25.3947 343.793 25.576 344.454 25.576C344.817 25.576 345.179 25.544 345.542 25.48C345.926 25.3947 346.299 25.288 346.662 25.16C346.811 25.096 346.929 25.096 347.014 25.16C347.099 25.224 347.142 25.3307 347.142 25.48V28.392C347.142 28.6053 347.035 28.7653 346.822 28.872C346.395 29.0213 345.894 29.1387 345.318 29.224C344.742 29.3307 344.155 29.384 343.558 29.384ZM356.501 29.384C354.176 29.384 352.363 28.8293 351.061 27.72C349.781 26.6107 349.141 24.9467 349.141 22.728V19.432C349.141 17.2133 349.781 15.5493 351.061 14.44C352.363 13.3307 354.176 12.776 356.501 12.776C358.848 12.776 360.661 13.3307 361.941 14.44C363.221 15.5493 363.861 17.2133 363.861 19.432V22.728C363.861 24.9467 363.221 26.6107 361.941 27.72C360.661 28.8293 358.848 29.384 356.501 29.384ZM356.501 25.608C357.525 25.608 358.261 25.352 358.709 24.84C359.179 24.3067 359.413 23.464 359.413 22.312V19.848C359.413 18.696 359.179 17.864 358.709 17.352C358.261 16.8187 357.525 16.552 356.501 16.552C355.499 16.552 354.763 16.8187 354.293 17.352C353.824 17.864 353.589 18.696 353.589 19.848V22.312C353.589 23.464 353.824 24.3067 354.293 24.84C354.763 25.352 355.499 25.608 356.501 25.608ZM374.224 29.384C373.349 29.384 372.539 29.3307 371.792 29.224C371.045 29.1387 370.288 29.0427 369.52 28.936C368.773 28.808 367.963 28.712 367.088 28.648V7.56C367.088 7.28267 367.227 7.144 367.504 7.144H371.12C371.397 7.144 371.536 7.28267 371.536 7.56V25.48C371.92 25.544 372.304 25.608 372.688 25.672C373.093 25.7147 373.477 25.736 373.84 25.736C374.821 25.736 375.547 25.4693 376.016 24.936C376.485 24.3813 376.72 23.5707 376.72 22.504V19.208C376.72 18.2907 376.56 17.6293 376.24 17.224C375.92 16.8187 375.429 16.616 374.768 16.616C374.235 16.616 373.669 16.776 373.072 17.096C372.496 17.3947 371.803 17.8853 370.992 18.568L371.088 15.24C371.984 14.408 372.88 13.7893 373.776 13.384C374.672 12.9787 375.589 12.776 376.528 12.776C378.085 12.776 379.248 13.2347 380.016 14.152C380.784 15.048 381.168 16.4347 381.168 18.312V22.888C381.168 25.0853 380.603 26.7173 379.472 27.784C378.341 28.8507 376.592 29.384 374.224 29.384ZM391.312 29.384C388.837 29.384 387.002 28.8613 385.808 27.816C384.634 26.7493 384.048 25.1813 384.048 23.112V19.432C384.048 17.256 384.634 15.6027 385.808 14.472C387.002 13.3413 388.816 12.776 391.248 12.776C393.616 12.776 395.397 13.32 396.592 14.408C397.808 15.496 398.416 17.096 398.416 19.208V21.704C398.416 21.9813 398.277 22.12 398 22.12H388.464V23.08C388.464 24.0613 388.677 24.7973 389.104 25.288C389.552 25.7573 390.277 25.992 391.28 25.992C392.048 25.992 392.656 25.8747 393.104 25.64C393.552 25.384 393.776 25.0107 393.776 24.52C393.776 24.2427 393.914 24.104 394.192 24.104H397.68C397.936 24.104 398.074 24.2427 398.096 24.52C398.138 26.1413 397.594 27.3573 396.464 28.168C395.333 28.9787 393.616 29.384 391.312 29.384ZM388.464 19.432H394.064V19.272C394.064 18.2053 393.84 17.4267 393.392 16.936C392.944 16.4453 392.25 16.2 391.312 16.2C390.309 16.2 389.584 16.456 389.136 16.968C388.688 17.4587 388.464 18.2373 388.464 19.304V19.432ZM402.035 29C401.758 29 401.619 28.8613 401.619 28.584V17.192C401.619 16.5307 401.598 15.912 401.555 15.336C401.534 14.7387 401.491 14.1627 401.427 13.608C401.384 13.3093 401.523 13.16 401.843 13.16H405.011C405.139 13.16 405.235 13.192 405.299 13.256C405.384 13.2987 405.438 13.384 405.459 13.512C405.544 13.8747 405.608 14.2907 405.651 14.76C405.694 15.2293 405.726 15.6667 405.747 16.072L406.067 18.024V28.584C406.067 28.8613 405.928 29 405.651 29H402.035ZM405.747 19.752L405.491 16.04C405.918 15.4213 406.408 14.8667 406.963 14.376C407.518 13.8853 408.072 13.5013 408.627 13.224C409.203 12.9253 409.736 12.776 410.227 12.776C410.568 12.776 410.846 12.8187 411.059 12.904C411.208 12.9253 411.294 12.9787 411.315 13.064C411.358 13.1493 411.39 13.2453 411.411 13.352C411.411 13.9067 411.4 14.5147 411.379 15.176C411.379 15.8373 411.347 16.456 411.283 17.032C411.262 17.1813 411.208 17.288 411.123 17.352C411.059 17.416 410.952 17.4373 410.803 17.416C410.675 17.3733 410.515 17.3413 410.323 17.32C410.131 17.2987 409.95 17.288 409.779 17.288C409.331 17.288 408.872 17.384 408.403 17.576C407.934 17.768 407.464 18.0453 406.995 18.408C406.547 18.7493 406.131 19.1973 405.747 19.752Z" fill="#FCD634"/>
</svg>
