<svg width="69" height="100" viewBox="0 0 69 100" fill="none" xmlns="http://www.w3.org/2000/svg">
<g clip-path="url(#clip0_113_8227)">
<path d="M0.766634 0.381592H0.383301V0.763271V98.4732V99.0075L0.919968 98.7785L34.5 85.7251L68.08 98.8549L68.6166 99.0839V98.4732V0.763271V0.381592H68.2333H0.766634Z" stroke="#BB9B52"/>
<path d="M26.3733 29.8474L23.46 37.3283L28.6733 35.8016L31.51 40.3054L34.5 31.8321L37.5666 40.3054L40.4033 35.8016L45.6166 37.3283L42.7033 29.8474" stroke="#BB9B52" stroke-linejoin="bevel"/>
<path d="M46.69 20.3054C46 19.7711 45.9234 18.7787 46.46 18.0917C47.2267 17.1756 46.7667 15.8779 45.6167 15.5726H45.54C44.6967 15.3436 44.16 14.5039 44.39 13.5879C44.6967 12.4428 43.7 11.4505 42.55 11.6031C41.63 11.7558 40.7867 11.1451 40.71 10.3054C40.48 9.16038 39.1767 8.62603 38.18 9.23671C37.4134 9.69473 36.4167 9.46572 35.88 8.7787C35.19 7.78633 33.81 7.78633 33.12 8.7787C32.66 9.54206 31.5867 9.69473 30.82 9.23671C29.8234 8.62603 28.52 9.16038 28.29 10.3054C28.1367 11.1451 27.2934 11.7558 26.3734 11.6031C25.2234 11.4505 24.2267 12.4428 24.5334 13.5879V13.6642C24.7634 14.5039 24.2267 15.3436 23.3834 15.6489C22.2334 15.9543 21.7734 17.3283 22.54 18.2443V18.3207C23.0767 19.0077 23 20.0001 22.31 20.5344C21.39 21.2978 21.5434 22.6718 22.6167 23.2062H22.6934C23.46 23.5879 23.8434 24.5802 23.3834 25.3436C22.8467 26.4123 23.6134 27.6337 24.7634 27.6337C25.6834 27.71 26.3734 28.397 26.2967 29.3131C26.22 30.4581 27.4467 31.2978 28.52 30.9161C29.3634 30.6108 30.2834 30.9924 30.6667 31.8321C31.1267 32.9008 32.5067 33.2062 33.35 32.3665C33.9634 31.7558 35.0367 31.7558 35.65 32.3665C36.4934 33.2062 37.95 32.9008 38.3334 31.8321C38.64 30.9924 39.6367 30.6108 40.48 30.9161C41.5534 31.2978 42.78 30.4581 42.7034 29.3131V29.2367C42.6267 28.397 43.3167 27.6337 44.2367 27.5573C45.3867 27.481 46.1534 26.2596 45.6167 25.2672V25.1909C45.2334 24.4276 45.54 23.4352 46.3067 23.0535C47.4567 22.4428 47.61 21.0688 46.69 20.3054ZM34.5 30.0001C28.98 30.0001 24.5334 25.6489 24.5334 20.3054C24.5334 14.9619 28.98 10.6108 34.5 10.6108C40.02 10.6108 44.4667 14.9619 44.4667 20.3054C44.4667 25.6489 40.02 30.0001 34.5 30.0001Z" stroke="#BB9B52" stroke-miterlimit="10"/>
<path d="M34.5 14.8855L36.11 18.4733L40.02 18.855L37.03 21.374L37.8733 25.1908L34.5 23.2061L31.1266 25.1908L31.97 21.374L29.0566 18.7786L32.9666 18.3969L34.5 14.8855Z" stroke="#BB9B52" stroke-miterlimit="10"/>
<path d="M8.27995 49.6946H9.96661C10.7333 49.6946 11.2699 49.7709 11.6533 49.9999C12.0366 50.2289 12.1899 50.6106 12.1899 51.145C12.1899 51.374 12.1133 51.603 12.0366 51.7557C11.9599 51.9083 11.8066 52.061 11.6533 52.2137C11.4999 52.3663 11.2699 52.4427 11.0399 52.4427V52.519C11.2699 52.5953 11.4999 52.6717 11.7299 52.748C11.9599 52.8244 12.1133 52.977 12.1899 53.206C12.3433 53.435 12.3433 53.664 12.3433 53.9694C12.3433 54.3511 12.2666 54.6564 12.1133 54.8854C11.9599 55.1144 11.7299 55.3434 11.4233 55.4961C11.1166 55.6488 10.7333 55.7251 10.2733 55.7251H8.20328V49.6946H8.27995ZM8.96995 52.2137H10.1199C10.6566 52.2137 11.0399 52.1373 11.1933 51.9847C11.4233 51.832 11.4999 51.5266 11.4999 51.2213C11.4999 50.916 11.3466 50.6106 11.1166 50.4579C10.8866 50.3053 10.5033 50.2289 9.96661 50.2289H8.89328V52.2137H8.96995ZM8.96995 52.8244V55.0381H10.1966C10.7333 55.0381 11.1166 54.9618 11.3466 54.7327C11.5766 54.5037 11.6533 54.2747 11.6533 53.8931C11.6533 53.664 11.5766 53.435 11.4999 53.2824C11.4233 53.1297 11.2699 52.977 11.0399 52.9007C10.8099 52.8244 10.5033 52.748 10.1199 52.748H8.96995V52.8244ZM17.0199 55.6488H13.6466V49.6182H17.0199V50.2289H14.3366V52.1373H16.8666V52.748H14.3366V54.9618H17.0199V55.6488ZM21.7733 54.0457C21.7733 54.4274 21.6966 54.7327 21.5433 54.9618C21.3899 55.1908 21.0833 55.4198 20.7766 55.4961C20.4699 55.7251 20.0866 55.7251 19.6266 55.7251C19.3966 55.7251 19.1666 55.7251 19.0133 55.7251C18.7833 55.7251 18.6299 55.6488 18.4766 55.6488C18.3233 55.5724 18.1699 55.5724 18.0166 55.4961V54.8091C18.2466 54.8854 18.4766 54.9618 18.7833 55.0381C19.0899 55.1144 19.3966 55.1144 19.7033 55.1144C20.0099 55.1144 20.2399 55.0381 20.4699 54.9618C20.6999 54.8854 20.8533 54.7327 20.9299 54.5801C21.0066 54.4274 21.0833 54.2747 21.0833 54.0457C21.0833 53.8167 21.0066 53.664 20.9299 53.5114C20.8533 53.3587 20.6999 53.2824 20.4699 53.1297C20.2399 52.977 20.0099 52.9007 19.6266 52.748C19.3966 52.6717 19.1666 52.5953 18.9366 52.4427C18.7066 52.3663 18.5533 52.2137 18.4766 52.061C18.3233 51.9083 18.2466 51.7556 18.1699 51.603C18.0933 51.4503 18.0933 51.2213 18.0933 50.9923C18.0933 50.687 18.1699 50.3816 18.3233 50.1526C18.4766 49.9236 18.7066 49.7709 19.0133 49.6182C19.3199 49.4656 19.6266 49.4656 20.0099 49.4656C20.3166 49.4656 20.6233 49.4656 20.9299 49.5419C21.2366 49.6182 21.4666 49.6946 21.6966 49.7709L21.4666 50.3816C21.2366 50.3053 21.0066 50.2289 20.7766 50.1526C20.5466 50.0763 20.3166 50.0763 20.0099 50.0763C19.7799 50.0763 19.5499 50.1526 19.3199 50.2289C19.1666 50.3053 19.0133 50.3816 18.9366 50.5343C18.8599 50.6869 18.7833 50.8396 18.7833 50.9923C18.7833 51.2213 18.8599 51.374 18.9366 51.5266C19.0133 51.6793 19.1666 51.7557 19.3966 51.9083C19.6266 51.9847 19.8566 52.1373 20.1633 52.2137C20.5466 52.3663 20.8533 52.4427 21.0833 52.5953C21.3133 52.748 21.5433 52.9007 21.6199 53.1297C21.6966 53.5114 21.7733 53.7404 21.7733 54.0457ZM24.8399 55.6488H24.1499V50.3053H22.2333V49.6946H26.6799V50.3053H24.7633V55.6488H24.8399ZM35.1133 52.6717C35.1133 53.1297 35.0366 53.5877 34.9599 53.9694C34.8066 54.3511 34.6533 54.6564 34.4233 54.9618C34.1933 55.2671 33.8866 55.4198 33.5799 55.5724C33.2733 55.7251 32.8133 55.8015 32.3533 55.8015C31.8933 55.8015 31.5099 55.7251 31.1266 55.5724C30.7433 55.4198 30.5133 55.1908 30.2833 54.9618C30.0533 54.6564 29.8999 54.3511 29.7466 53.9694C29.6699 53.5877 29.5933 53.206 29.5933 52.6717C29.5933 52.061 29.6699 51.5266 29.8999 51.0686C30.1299 50.6106 30.4366 50.2289 30.8199 49.9999C31.2033 49.7709 31.7399 49.6182 32.3533 49.6182C32.9666 49.6182 33.4266 49.7709 33.8866 49.9999C34.2699 50.2289 34.5766 50.6106 34.8066 51.0686C34.9599 51.5266 35.1133 52.061 35.1133 52.6717ZM30.2833 52.6717C30.2833 53.206 30.3599 53.5877 30.5133 53.9694C30.6666 54.3511 30.8966 54.6564 31.2033 54.8091C31.5099 55.0381 31.8933 55.1144 32.3533 55.1144C32.8133 55.1144 33.1966 55.0381 33.5033 54.8091C33.8099 54.5801 34.0399 54.3511 34.1933 53.9694C34.3466 53.5877 34.4233 53.1297 34.4233 52.6717C34.4233 51.9083 34.2699 51.2976 33.9633 50.8396C33.6566 50.3816 33.1199 50.1526 32.4299 50.1526C31.9699 50.1526 31.5866 50.2289 31.2799 50.4579C30.9733 50.6869 30.7433 50.916 30.5899 51.2976C30.3599 51.6793 30.2833 52.1373 30.2833 52.6717ZM41.0933 55.6488H40.2499L36.9533 50.6106C36.9533 50.7633 36.9533 50.916 36.9533 51.0686C36.9533 51.2213 36.9533 51.4503 36.9533 51.603C36.9533 51.832 36.9533 51.9847 36.9533 52.2137V55.6488H36.3399V49.6182H37.1066L40.4033 54.6564C40.4033 54.5801 40.4033 54.4274 40.4033 54.2747C40.4033 54.1221 40.4033 53.8931 40.4033 53.7404C40.4033 53.5114 40.4033 53.3587 40.4033 53.206V49.7709H41.0933V55.6488ZM42.7799 55.6488V49.6182H43.4699V54.9618H46.1533V55.5724H42.7799V55.6488ZM47.1499 55.6488V49.6182H47.8399V55.6488H47.1499ZM54.2033 55.6488H53.3599L50.0633 50.6106C50.0633 50.7633 50.0633 50.916 50.0633 51.0686C50.0633 51.2213 50.0633 51.4503 50.0633 51.603C50.0633 51.832 50.0633 51.9847 50.0633 52.2137V55.6488H49.4499V49.6182H50.2166L53.5133 54.6564C53.5133 54.5801 53.5133 54.4274 53.5133 54.2747C53.5133 54.1221 53.5133 53.8931 53.5133 53.7404C53.5133 53.5114 53.5133 53.3587 53.5133 53.206V49.7709H54.2033V55.6488ZM59.2633 55.6488H55.8899V49.6182H59.2633V50.2289H56.5799V52.1373H59.1099V52.748H56.5799V54.9618H59.2633V55.6488ZM10.4266 64.8091H9.73661V59.4656H7.81995V58.8549H12.2666V59.4656H10.3499V64.8091H10.4266ZM14.8733 58.8549C15.3333 58.8549 15.7933 58.9312 16.0999 59.0076C16.4066 59.1602 16.6366 59.3129 16.7899 59.5419C16.9433 59.7709 17.0199 60.0763 17.0199 60.4579C17.0199 60.7633 16.9433 61.0686 16.8666 61.2213C16.7133 61.4503 16.6366 61.603 16.4066 61.7557C16.2533 61.9083 16.0233 61.9847 15.7933 62.061L17.4799 64.7328H16.6366L15.1799 62.2137H13.9533V64.7328H13.2633V58.7022H14.8733V58.8549ZM14.7966 59.4656H13.8766V61.7557H14.7966C15.2566 61.7557 15.6399 61.6793 15.8699 61.4503C16.0999 61.2213 16.2533 60.9923 16.2533 60.5343C16.2533 60.1526 16.0999 59.8473 15.8699 59.6946C15.7166 59.5419 15.3333 59.4656 14.7966 59.4656ZM22.2333 64.8091L21.4666 62.9007H19.0899L18.3233 64.8091H17.6333L20.0099 58.7786H20.6233L22.9999 64.8091H22.2333ZM21.2366 62.29L20.5466 60.3816C20.5466 60.3053 20.4699 60.2289 20.4699 60.1526C20.4699 60.0763 20.3933 59.9236 20.3933 59.7709C20.3166 59.6182 20.3166 59.5419 20.3166 59.4656C20.3166 59.5419 20.2399 59.6946 20.2399 59.7709C20.2399 59.8473 20.1633 59.9999 20.1633 60.0763C20.1633 60.1526 20.0866 60.2289 20.0866 60.3053L19.3966 62.2137H21.2366V62.29ZM28.5966 61.7557C28.5966 62.4427 28.4433 62.977 28.2133 63.435C27.9833 63.8931 27.5999 64.1984 27.1399 64.4274C26.6799 64.6564 26.1433 64.7328 25.4533 64.7328H23.7666V58.7022H25.6066C26.2199 58.7022 26.7566 58.7786 27.2166 59.0076C27.6766 59.2366 27.9833 59.5419 28.2133 59.9999C28.4433 60.6106 28.5966 61.145 28.5966 61.7557ZM27.8299 61.832C27.8299 61.2976 27.7533 60.8396 27.5233 60.5343C27.3699 60.1526 27.0633 59.9236 26.7566 59.7709C26.3733 59.6182 25.9899 59.5419 25.4533 59.5419H24.4566V64.3511H25.2999C26.1433 64.3511 26.7566 64.1221 27.1399 63.7404C27.5999 63.206 27.8299 62.5953 27.8299 61.832ZM29.8999 64.8091V58.7786H30.5899V64.8091H29.8999ZM36.9533 64.8091H36.1099L32.8133 59.7709C32.8133 59.9236 32.8133 60.0763 32.8133 60.2289C32.8133 60.3816 32.8133 60.6106 32.8133 60.7633C32.8133 60.9923 32.8133 61.145 32.8133 61.374V64.8091H32.1999V58.7786H32.9666L36.2633 63.8167C36.2633 63.7404 36.2633 63.5877 36.2633 63.435C36.2633 63.2824 36.2633 63.0534 36.2633 62.9007C36.2633 62.6717 36.2633 62.519 36.2633 62.3663V58.9312H36.9533V64.8091ZM41.1699 61.6793H43.2399V64.5801C42.9333 64.6564 42.6266 64.7328 42.2433 64.8091C42.0133 64.8854 41.6299 64.8854 41.1699 64.8854C40.5566 64.8854 40.0199 64.7328 39.5599 64.5037C39.0999 64.2747 38.7933 63.8931 38.5633 63.435C38.4099 63.0534 38.3333 62.4427 38.3333 61.832C38.3333 61.2213 38.4866 60.6869 38.7166 60.2289C38.9466 59.7709 39.3299 59.3892 39.7899 59.1602C40.2499 58.9312 40.7866 58.7786 41.4766 58.7786C41.7833 58.7786 42.1666 58.7786 42.3966 58.8549C42.7033 58.9312 43.0099 59.0076 43.2399 59.0839L42.9333 59.6946C42.7033 59.6182 42.4733 59.5419 42.1666 59.4656C41.9366 59.3892 41.6299 59.3892 41.3233 59.3892C40.8633 59.3892 40.4033 59.4656 40.0966 59.6946C39.7133 59.9236 39.4833 60.1526 39.3299 60.5343C39.1766 60.916 39.0233 61.374 39.0233 61.832C39.0233 62.3663 39.0999 62.748 39.2533 63.1297C39.4066 63.5114 39.6366 63.8167 40.0199 63.9694C40.3266 64.1984 40.7866 64.2747 41.3233 64.2747C41.6299 64.2747 41.8599 64.2747 42.0133 64.1984C42.2433 64.1984 42.3966 64.1221 42.5499 64.0457V62.2137H41.1699V61.6793ZM50.6766 64.8091L49.9099 62.9007H47.5333L46.7666 64.8091H46.0766L48.4533 58.7786H49.0666L51.4433 64.8091H50.6766ZM49.7566 62.29L49.0666 60.4579C49.0666 60.3816 48.9899 60.3053 48.9899 60.2289C48.9899 60.1526 48.9133 59.9999 48.9133 59.8473C48.8366 59.6946 48.8366 59.6182 48.8366 59.5419C48.8366 59.6182 48.7599 59.7709 48.7599 59.8473C48.7599 59.9236 48.6833 60.0763 48.6833 60.1526C48.6833 60.2289 48.6066 60.3053 48.6066 60.3816L47.9166 62.29H49.7566ZM53.8199 58.8549C54.5866 58.8549 55.1999 59.0076 55.5066 59.3129C55.8899 59.6182 56.0433 60.0763 56.0433 60.6106C56.0433 60.8396 55.9666 61.0686 55.8899 61.374C55.8133 61.603 55.6599 61.832 55.5066 61.9847C55.3533 62.1373 55.0466 62.29 54.7399 62.3663C54.4333 62.4427 54.0499 62.519 53.5899 62.519H52.8233V64.8854H52.1333V58.8549H53.8199ZM53.7433 59.4656H52.8999V61.9083H53.5899C53.9733 61.9083 54.2799 61.832 54.5866 61.7557C54.8166 61.6793 55.0466 61.5266 55.1999 61.374C55.3533 61.2213 55.4299 60.916 55.4299 60.6106C55.4299 60.2289 55.2766 59.9236 55.0466 59.6946C54.7399 59.5419 54.3566 59.4656 53.7433 59.4656ZM58.8799 58.8549C59.6466 58.8549 60.2599 59.0076 60.5666 59.3129C60.9499 59.6182 61.1033 60.0763 61.1033 60.6106C61.1033 60.8396 61.0266 61.0686 60.9499 61.374C60.8733 61.603 60.7199 61.832 60.5666 61.9847C60.4133 62.1373 60.1066 62.29 59.7999 62.3663C59.4933 62.4427 59.1099 62.519 58.6499 62.519H57.8833V64.8854H57.1933V58.8549H58.8799ZM58.8799 59.4656H58.0366V61.9083H58.7266C59.1099 61.9083 59.4166 61.832 59.7233 61.7557C59.9533 61.6793 60.1833 61.5266 60.3366 61.374C60.4899 61.2213 60.5666 60.916 60.5666 60.6106C60.5666 60.2289 60.4133 59.9236 60.1833 59.6946C59.7999 59.5419 59.4166 59.4656 58.8799 59.4656Z" fill="#ABABAB"/>
<path d="M6.89998 69.8473C6.66998 69.8473 6.51664 69.9236 6.36331 69.9999C6.20998 70.0763 6.05664 70.1526 5.97998 70.3053C5.90331 70.4579 5.82664 70.6106 5.74998 70.8396C5.67331 71.0686 5.67331 71.2976 5.67331 71.5266C5.67331 71.9083 5.74998 72.1373 5.82664 72.4427C5.90331 72.6717 6.05664 72.9007 6.20998 72.977C6.36331 73.1297 6.59331 73.1297 6.89998 73.1297C7.12998 73.1297 7.28331 73.1297 7.51331 73.0534C7.74331 72.977 7.89664 72.977 8.20331 72.9007V73.7404C7.97331 73.8167 7.74331 73.8931 7.58998 73.9694C7.35998 74.0457 7.12998 74.0457 6.82331 74.0457C6.28664 74.0457 5.90331 73.9694 5.59664 73.7404C5.28998 73.5114 5.05998 73.206 4.90664 72.8244C4.67664 72.519 4.59998 72.061 4.59998 71.5266C4.59998 71.145 4.67664 70.8396 4.75331 70.5343C4.82998 70.2289 4.98331 69.9236 5.21331 69.7709C5.44331 69.5419 5.67331 69.3892 5.90331 69.2366C6.20998 69.0839 6.51664 69.0839 6.89998 69.0839C7.12998 69.0839 7.35998 69.0839 7.66664 69.1602C7.89664 69.2366 8.12664 69.3129 8.35664 69.3892L8.04998 70.2289C7.89664 70.1526 7.66664 70.0763 7.51331 69.9999C7.28331 69.9236 7.12998 69.8473 6.89998 69.8473ZM12.2666 73.9694L11.8833 72.8244H10.12L9.73664 73.9694H8.58664L10.35 69.0076H11.6533L13.4166 73.9694H12.2666ZM11.6533 71.9847L11.27 70.8396C11.27 70.7633 11.1933 70.687 11.1933 70.5343C11.1933 70.3816 11.1166 70.3053 11.1166 70.1526C11.1166 69.9999 11.04 69.9236 11.04 69.8473C11.04 69.9236 10.9633 70.0763 10.9633 70.1526C10.9633 70.3053 10.8866 70.3816 10.8866 70.5343C10.8866 70.687 10.81 70.7633 10.81 70.7633L10.4266 71.9083H11.6533V71.9847ZM15.5633 69.0839C16.1766 69.0839 16.6366 69.2366 16.9433 69.4656C17.25 69.7709 17.4033 70.0763 17.4033 70.6106C17.4033 70.8396 17.4033 71.0686 17.3266 71.2213C17.25 71.4503 17.1733 71.603 17.02 71.7557C16.8666 71.9083 16.7133 72.061 16.4066 72.1373C16.1766 72.2137 15.87 72.29 15.4866 72.29H15.0266V74.0457H13.9533V69.1602H15.5633V69.0839ZM15.5633 69.9236H15.1033V71.374H15.41C15.64 71.374 15.7933 71.374 15.9466 71.2976C16.1 71.2213 16.1766 71.145 16.2533 71.0686C16.33 70.9923 16.4066 70.8396 16.4066 70.6106C16.4066 70.3816 16.33 70.2289 16.1766 70.0763C16.0233 69.9999 15.7933 69.9236 15.5633 69.9236ZM18.3233 73.9694V69.0839H19.3966V73.9694H18.3233ZM22.54 73.9694H21.4666V69.9236H20.1633V69.0839H23.92V69.9236H22.6166V73.9694H22.54ZM27.6 73.9694L27.2166 72.8244H25.4533L25.07 73.9694H23.92L25.6833 69.0076H26.9866L28.75 73.9694H27.6ZM27.0633 71.9847L26.68 70.8396C26.68 70.7633 26.6033 70.687 26.6033 70.5343C26.6033 70.3816 26.5266 70.3053 26.5266 70.1526C26.5266 69.9999 26.45 69.9236 26.45 69.8473C26.45 69.9236 26.3733 70.0763 26.3733 70.1526C26.3733 70.3053 26.2966 70.3816 26.2966 70.5343C26.2966 70.687 26.22 70.7633 26.22 70.7633L25.8366 71.9083H27.0633V71.9847ZM29.3633 73.9694V69.0839H30.4366V73.1297H32.43V73.9694H29.3633ZM36.11 73.9694H35.1133V69.0839H37.95V69.9236H36.1866V71.2213H37.8733V72.061H36.1866V73.9694H36.11ZM38.87 73.9694V69.0839H39.9433V73.9694H38.87ZM45.54 73.9694H44.2366L42.09 70.2289C42.09 70.3816 42.09 70.5343 42.09 70.687C42.09 70.8396 42.09 70.9923 42.09 71.145C42.09 71.2976 42.09 71.4503 42.09 71.603V73.8931H41.17V69.0076H42.4733L44.62 72.6717C44.62 72.519 44.62 72.3663 44.62 72.2137C44.62 72.061 44.62 71.9083 44.62 71.7557C44.62 71.603 44.62 71.4503 44.62 71.2976V69.0076H45.54V73.9694ZM49.7566 73.9694L49.3733 72.8244H47.61L47.2266 73.9694H46.0766L47.84 69.0076H49.1433L50.9066 73.9694H49.7566ZM49.1433 71.9847L48.76 70.8396C48.76 70.7633 48.6833 70.687 48.6833 70.5343C48.6833 70.3816 48.6066 70.3053 48.6066 70.1526C48.6066 69.9999 48.53 69.9236 48.53 69.8473C48.53 69.9236 48.4533 70.0763 48.4533 70.1526C48.4533 70.3053 48.3766 70.3816 48.3766 70.5343C48.3766 70.687 48.3 70.7633 48.3 70.7633L47.9166 71.9083H49.1433V71.9847ZM55.89 73.9694H54.5866L52.44 70.2289C52.44 70.3816 52.44 70.5343 52.44 70.687C52.44 70.8396 52.44 70.9923 52.44 71.145C52.44 71.2976 52.44 71.4503 52.44 71.603V73.8931H51.52V69.0076H52.8233L54.97 72.6717C54.97 72.519 54.97 72.3663 54.97 72.2137C54.97 72.061 54.97 71.9083 54.97 71.7557C54.97 71.603 54.97 71.4503 54.97 71.2976V69.0076H55.89V73.9694ZM59.2633 69.8473C59.0333 69.8473 58.88 69.9236 58.7266 69.9999C58.5733 70.0763 58.42 70.1526 58.3433 70.3053C58.2666 70.4579 58.19 70.6106 58.1133 70.8396C58.0366 71.0686 58.0366 71.2976 58.0366 71.5266C58.0366 71.9083 58.1133 72.1373 58.19 72.4427C58.2666 72.6717 58.42 72.9007 58.5733 72.977C58.7266 73.1297 58.9566 73.1297 59.2633 73.1297C59.4933 73.1297 59.6466 73.1297 59.8766 73.0534C60.1066 72.977 60.26 72.977 60.5666 72.9007V73.7404C60.3366 73.8167 60.1066 73.8931 59.9533 73.9694C59.6466 74.0457 59.4166 74.0457 59.11 74.0457C58.5733 74.0457 58.19 73.9694 57.8833 73.7404C57.5766 73.5114 57.3466 73.206 57.1933 72.8244C57.04 72.4427 56.9633 71.9847 56.9633 71.5266C56.9633 71.145 57.04 70.8396 57.1166 70.5343C57.1933 70.2289 57.3466 69.9236 57.5766 69.7709C57.8066 69.5419 58.0366 69.3892 58.2666 69.2366C58.5733 69.0839 58.88 69.0839 59.2633 69.0839C59.4933 69.0839 59.7233 69.0839 60.03 69.1602C60.26 69.2366 60.49 69.3129 60.72 69.3892L60.3366 70.2289C60.1833 70.1526 59.9533 70.0763 59.8 69.9999C59.57 69.9236 59.4166 69.8473 59.2633 69.8473ZM64.4 73.9694H61.5633V69.0839H64.4V69.9236H62.6366V70.9923H64.3233V71.832H62.6366V73.1297H64.4V73.9694Z" fill="#FAFAFA"/>
</g>
<defs>
<clipPath id="clip0_113_8227">
<rect width="69" height="100" fill="white"/>
</clipPath>
</defs>
</svg>
