<svg width="351" height="145" viewBox="0 0 351 145" fill="none" xmlns="http://www.w3.org/2000/svg">
<rect width="351" height="145" rx="8" fill="url(#paint0_linear_185_1238)" fill-opacity="0.2"/>
<rect x="1" y="1" width="349" height="143" rx="7" stroke="url(#paint1_linear_185_1238)" stroke-opacity="0.2" stroke-width="2"/>
<path d="M8 0.5H343C347.142 0.5 350.5 3.85787 350.5 8V34.5H0.5V8C0.5 3.85786 3.85786 0.5 8 0.5Z" fill="url(#paint2_linear_185_1238)"/>
<path d="M8 0.5H343C347.142 0.5 350.5 3.85787 350.5 8V34.5H0.5V8C0.5 3.85786 3.85786 0.5 8 0.5Z" stroke="#65207E"/>
<path d="M23.1572 21.2246C23.1572 21.8171 23.0137 22.332 22.7266 22.7695C22.4395 23.207 22.0202 23.5443 21.4688 23.7812C20.9219 24.0182 20.2565 24.1367 19.4727 24.1367C19.1263 24.1367 18.7868 24.1139 18.4541 24.0684C18.126 24.0228 17.8092 23.9567 17.5039 23.8701C17.2031 23.779 16.916 23.6673 16.6426 23.5352V21.5664C17.1165 21.776 17.6087 21.9652 18.1191 22.1338C18.6296 22.3024 19.1354 22.3867 19.6367 22.3867C19.9831 22.3867 20.2611 22.3411 20.4707 22.25C20.6849 22.1589 20.8398 22.0335 20.9355 21.874C21.0312 21.7145 21.0791 21.5322 21.0791 21.3271C21.0791 21.0765 20.9948 20.8623 20.8262 20.6846C20.6576 20.5068 20.4251 20.3405 20.1289 20.1855C19.8372 20.0306 19.5068 19.8643 19.1377 19.6865C18.9053 19.5771 18.6523 19.445 18.3789 19.29C18.1055 19.1305 17.8457 18.9368 17.5996 18.709C17.3535 18.4811 17.1507 18.2054 16.9912 17.8818C16.8363 17.5537 16.7588 17.1618 16.7588 16.7061C16.7588 16.109 16.8955 15.5986 17.1689 15.1748C17.4424 14.751 17.832 14.4274 18.3379 14.2041C18.8483 13.9762 19.4499 13.8623 20.1426 13.8623C20.6621 13.8623 21.1566 13.9238 21.626 14.0469C22.0999 14.1654 22.5944 14.3385 23.1094 14.5664L22.4258 16.2139C21.9655 16.027 21.5531 15.8835 21.1885 15.7832C20.8239 15.6784 20.4525 15.626 20.0742 15.626C19.8099 15.626 19.5843 15.6693 19.3975 15.7559C19.2106 15.8379 19.0693 15.9564 18.9736 16.1113C18.8779 16.2617 18.8301 16.4372 18.8301 16.6377C18.8301 16.8747 18.8984 17.0752 19.0352 17.2393C19.1764 17.3988 19.3861 17.5537 19.6641 17.7041C19.9466 17.8545 20.2975 18.0299 20.7168 18.2305C21.2272 18.472 21.6624 18.7249 22.0225 18.9893C22.387 19.249 22.6673 19.5566 22.8633 19.9121C23.0592 20.263 23.1572 20.7005 23.1572 21.2246ZM28.0244 22.4756C28.2523 22.4756 28.4733 22.4528 28.6875 22.4072C28.9062 22.3617 29.1227 22.3047 29.3369 22.2363V23.7881C29.1136 23.8883 28.8356 23.9704 28.5029 24.0342C28.1748 24.1025 27.8148 24.1367 27.4229 24.1367C26.9671 24.1367 26.557 24.0638 26.1924 23.918C25.8324 23.7676 25.5475 23.5101 25.3379 23.1455C25.1328 22.7764 25.0303 22.2637 25.0303 21.6074V17.9229H24.0322V17.041L25.1807 16.3438L25.7822 14.7305H27.1152V16.3574H29.2549V17.9229H27.1152V21.6074C27.1152 21.8991 27.1973 22.1178 27.3613 22.2637C27.5299 22.4049 27.751 22.4756 28.0244 22.4756ZM34.04 16.2139C34.7464 16.2139 35.3548 16.3506 35.8652 16.624C36.3757 16.8929 36.7699 17.2848 37.0479 17.7998C37.3258 18.3148 37.4648 18.9437 37.4648 19.6865V20.6982H32.5361C32.5589 21.2861 32.7344 21.7487 33.0625 22.0859C33.3952 22.4186 33.8555 22.585 34.4434 22.585C34.931 22.585 35.3776 22.5348 35.7832 22.4346C36.1888 22.3343 36.6058 22.1839 37.0342 21.9834V23.5967C36.6559 23.7835 36.2594 23.9202 35.8447 24.0068C35.4346 24.0934 34.9355 24.1367 34.3477 24.1367C33.582 24.1367 32.903 23.9954 32.3105 23.7129C31.7227 23.4303 31.2601 22.9997 30.9229 22.4209C30.5902 21.8421 30.4238 21.113 30.4238 20.2334C30.4238 19.3402 30.5742 18.5973 30.875 18.0049C31.1803 17.4079 31.6042 16.9613 32.1465 16.665C32.6888 16.3643 33.32 16.2139 34.04 16.2139ZM34.0537 17.6973C33.6481 17.6973 33.3109 17.8271 33.042 18.0869C32.7777 18.3467 32.625 18.7546 32.584 19.3105H35.5098C35.5052 19.0007 35.4482 18.7249 35.3389 18.4834C35.234 18.2419 35.0745 18.0505 34.8604 17.9092C34.6507 17.7679 34.3818 17.6973 34.0537 17.6973ZM43.4121 16.2139C44.2734 16.2139 44.9684 16.5488 45.4971 17.2188C46.0303 17.8887 46.2969 18.8708 46.2969 20.165C46.2969 21.0309 46.1715 21.7601 45.9209 22.3525C45.6702 22.9404 45.3239 23.3848 44.8818 23.6855C44.4398 23.9863 43.9316 24.1367 43.3574 24.1367C42.9883 24.1367 42.6715 24.0911 42.4072 24C42.1429 23.9043 41.9173 23.7835 41.7305 23.6377C41.5436 23.4873 41.3818 23.3278 41.2451 23.1592H41.1357C41.1722 23.3415 41.1995 23.5283 41.2178 23.7197C41.236 23.9111 41.2451 24.098 41.2451 24.2803V27.3633H39.1602V16.3574H40.8555L41.1494 17.3486H41.2451C41.3818 17.1436 41.5482 16.9544 41.7441 16.7812C41.9401 16.6081 42.1748 16.4714 42.4482 16.3711C42.7262 16.2663 43.0475 16.2139 43.4121 16.2139ZM42.7422 17.8818C42.3776 17.8818 42.0882 17.957 41.874 18.1074C41.6598 18.2578 41.5026 18.4834 41.4023 18.7842C41.3066 19.085 41.2542 19.4655 41.2451 19.9258V20.1514C41.2451 20.6436 41.2907 21.0605 41.3818 21.4023C41.4775 21.7441 41.6348 22.0039 41.8535 22.1816C42.0768 22.3594 42.3822 22.4482 42.7695 22.4482C43.0885 22.4482 43.3506 22.3594 43.5557 22.1816C43.7607 22.0039 43.9134 21.7441 44.0137 21.4023C44.1185 21.056 44.1709 20.6344 44.1709 20.1377C44.1709 19.3903 44.0547 18.8275 43.8223 18.4492C43.5898 18.071 43.2298 17.8818 42.7422 17.8818ZM56.3457 24H54.2334V18.2168C54.2334 18.0573 54.2357 17.8613 54.2402 17.6289C54.2448 17.3919 54.2516 17.1504 54.2607 16.9043C54.2699 16.6536 54.279 16.4281 54.2881 16.2275C54.238 16.2868 54.1354 16.3893 53.9805 16.5352C53.8301 16.6764 53.6888 16.804 53.5566 16.918L52.4082 17.8408L51.3896 16.5693L54.6094 14.0059H56.3457V24Z" fill="#FAFAFA"/>
<defs>
<linearGradient id="paint0_linear_185_1238" x1="19.8679" y1="-65.8224" x2="37.4376" y2="186.904" gradientUnits="userSpaceOnUse">
<stop stop-color="white"/>
<stop offset="1" stop-color="white" stop-opacity="0"/>
</linearGradient>
<linearGradient id="paint1_linear_185_1238" x1="0" y1="72.5" x2="351" y2="72.5" gradientUnits="userSpaceOnUse">
<stop stop-color="#1A6DFF"/>
<stop offset="1" stop-color="#C822FF"/>
</linearGradient>
<linearGradient id="paint2_linear_185_1238" x1="0" y1="17.5" x2="351" y2="17.5" gradientUnits="userSpaceOnUse">
<stop stop-color="#571F98"/>
<stop offset="1" stop-color="#542374"/>
</linearGradient>
</defs>
</svg>
